<?xml version="1.0" encoding="utf-8"?>
<!-- Generator: Adobe Illustrator 27.6.1, SVG Export Plug-In . SVG Version: 6.00 Build 0)  -->
<svg version="1.1" id="Layer_1" xmlns="http://www.w3.org/2000/svg" xmlns:xlink="http://www.w3.org/1999/xlink" x="0px" y="0px"
	 viewBox="0 0 283.5 283.5" style="enable-background:new 0 0 283.5 283.5;" xml:space="preserve">
<style type="text/css">
	.st0{fill:#EE2B63;}
</style>
<g>
	<path class="st0" d="M151.7,150.9c-34.3-1.6-43.1,16.3-43.1,16.3c15.2-10.8,43.9-6.8,60.8-6c28.5,1.5,61.2,0.2,81.5-22.9
		c14.7-16.7,17.4-37.4,17.4-37.4s-3.2,4.6-7.7,10.2C230.6,148.5,196.7,152.9,151.7,150.9z"/>
	<path class="st0" d="M146.2,172.5c-24.9-2.2-44.9,19.1-44.9,19.1c37.4-19.1,56.5-2.4,93.2-4.5c36.7-2.1,48.3-23.7,48.3-23.7
		s-9,6.6-31.2,10.9C189.5,178.6,171.1,174.7,146.2,172.5z"/>
	<path class="st0" d="M142.4,195c-27.3-0.3-44.7,14.1-44.7,14.1c38.2-12.2,60.2,1.5,90.4-1.9c12.5-1.4,20.2-7.8,20.2-7.8
		s-11,1.6-16.7,1.7C172.2,201.3,161.5,195.2,142.4,195z"/>
	<path class="st0" d="M104.1,158.5c13.8-15,22.7-18.2,29.2-19.6c12.9-2.1,37.6,10.1,79-7.9c41.4-18,65.6-59.4,65.6-59.4
		s-34.8,34.9-77.6,48.6c-30,9.7-46.3,6.3-58.5,6.6c-10.6,0.2-14.8,1.6-23.2,7.1c-6.9,4.5-14.2,15.6-19.3,24.7
		c-1.6,0-3.1-0.1-4.4-0.3c-15.6-1.9-38.7-6-48.3-6.6l-8,0.9c-12,2.8-19.3,9.4-21.8,15.5c-0.7,1.6-9.7,3.5-10.9,10.1
		c-1.2,6.6,2.8,9.7,2.8,9.7l0-0.3c-0.2-2.2-0.3-7.9,3.1-11.1c3-2.8,7.4-3.4,7.4-3.4c1.5,0.7,5.7,0.6,9.5,0.4
		c3.8-0.3,6.3-1.5,6.3-1.5s-2.1-1.6-5.9-2.5c-3.9-0.9-6-0.6-6-0.6s-1.2-1.3,1.6-3.4c20.4-15.3,50.6,0.7,71.2-0.9
		c0.1,0.2,3.3-0.2,3.7-0.5C101,163,102.7,160,104.1,158.5z"/>
	<path class="st0" d="M60.5,184.7c-10.8-5.3-28.1-4.3-31.3-4.3c-3.7,0-11.2,2.1-15.5,3.6L14,184c16.9-2,72.9,5.2,32.5,27.9
		C78.2,203.9,71.3,189.9,60.5,184.7z"/>
</g>
</svg>
