<svg width="50" height="50" viewBox="0 0 50 50" fill="none" xmlns="http://www.w3.org/2000/svg">
<path d="M40.4312 8.5553H9.53906V36.6512H40.4312V8.5553Z" fill="white"/>
<path fill-rule="evenodd" clip-rule="evenodd" d="M50 25C50 38.8073 38.8073 50 25 50C11.1927 50 0 38.8073 0 25C0 11.1927 11.1927 0 25 0C38.8073 0 50 11.1927 50 25ZM17.9158 34.9487H13.0639C12.0443 34.9487 11.5409 34.9487 11.233 34.7523C11.0706 34.6466 10.9353 34.5041 10.8382 34.3364C10.7411 34.1687 10.6849 33.9805 10.6741 33.787C10.6558 33.4248 10.9071 32.9824 11.4111 32.0982L23.3915 10.983C23.9011 10.0866 24.1591 9.63815 24.4847 9.47237C24.6579 9.38455 24.8494 9.33878 25.0436 9.33878C25.2378 9.33878 25.4293 9.38455 25.6025 9.47237C25.9281 9.63881 26.1861 10.0866 26.6957 10.983L29.1591 15.2823L29.1718 15.3043C29.7224 16.2663 30.0013 16.754 30.1235 17.266C30.2583 17.8271 30.2583 18.4122 30.1235 18.9734C30.0007 19.4893 29.724 19.9807 29.1651 20.9571L22.8735 32.0806L22.8572 32.1092C22.3033 33.0789 22.0223 33.5706 21.6332 33.9401C21.2116 34.3433 20.6999 34.64 20.1405 34.8056C19.6292 34.9487 19.0579 34.9487 17.9158 34.9487ZM30.1681 34.9487H37.1202C38.1458 34.9487 38.6618 34.9487 38.969 34.7463C39.1324 34.6404 39.2683 34.4972 39.3654 34.3285C39.4626 34.1598 39.5183 33.9704 39.528 33.776C39.5456 33.4254 39.2993 33.0003 38.8166 32.1674C38.7999 32.1391 38.7833 32.1102 38.7663 32.0809L35.284 26.1222L35.2443 26.0556C34.755 25.2284 34.508 24.8103 34.1907 24.6488C34.0186 24.561 33.8282 24.5152 33.635 24.5152C33.4418 24.5152 33.2513 24.561 33.0792 24.6488C32.7597 24.8152 32.502 25.2507 31.992 26.1288L28.5223 32.0875L28.5103 32.1082C28.0023 32.985 27.7483 33.4231 27.7666 33.7826C27.7774 33.9769 27.8336 34.166 27.9307 34.3346C28.0277 34.5032 28.163 34.6468 28.3256 34.7537C28.6265 34.9487 29.1425 34.9487 30.1681 34.9487Z" fill="#E84142"/>
</svg>
