<?xml version="1.0" encoding="utf-8"?>
<!-- Generator: Adobe Illustrator 26.3.1, SVG Export Plug-In . SVG Version: 6.00 Build 0)  -->
<svg version="1.1" id="Layer_1" xmlns="http://www.w3.org/2000/svg" xmlns:xlink="http://www.w3.org/1999/xlink" x="0px" y="0px"
	 viewBox="0 0 300 300" style="enable-background:new 0 0 300 300;" xml:space="preserve">
<style type="text/css">
	.st0{fill:#FFFFFF;}
</style>
<g>
	<circle cx="150" cy="150" r="150"/>
	<g>
		<path class="st0" d="M260.1,126.9c-1.5-7.2-3.7-14.2-6.5-21c-2.8-6.7-6.3-13.1-10.3-19.1c-4-5.9-8.6-11.5-13.7-16.5
			c-5.1-5.1-10.6-9.6-16.5-13.7c-6-4-12.4-7.5-19.1-10.3c-27.8-11.8-59.2-11.8-87,0c-13.3,5.6-25.4,13.8-35.6,24
			c-5.1,5.1-9.6,10.6-13.7,16.5c-4,6-7.5,12.4-10.3,19.1c-11.8,27.8-11.8,59.2,0,87c2.8,6.7,6.3,13,10.3,19
			c4,5.9,8.6,11.5,13.7,16.5c5.1,5.1,10.6,9.6,16.5,13.7c6,4,12.4,7.5,19.1,10.3c27.8,11.8,59.2,11.8,87,0c6.7-2.8,13-6.3,19.1-10.3
			c5.9-4,11.5-8.6,16.5-13.7c5.1-5.1,9.6-10.6,13.7-16.5c4-6,7.5-12.4,10.3-19C262.4,172.1,264.7,149.1,260.1,126.9z M150.6,247.4
			c-54.1,0-97.8-43.9-97.8-97.8s43.9-97.8,97.8-97.8c54,0,97.8,43.9,97.8,97.8S204.5,247.4,150.6,247.4z"/>
		<path class="st0" d="M152.3,238.9h2.6c0.5,0,0.9,0,1.4-0.1h0.1c0.5,0,0.8,0,1.3-0.1h0.3c0.3,0,0.7,0,1-0.1h0.3
			c0.3,0,0.7-0.1,1.2-0.1h0.2c0.5,0,0.9-0.1,1.4-0.1c0.5,0,0.8-0.1,1.3-0.2h0.2c0.3,0,0.7-0.1,1-0.1h0.2c0.5-0.1,0.8-0.1,1.3-0.2
			c0.9-0.1,1.8-0.3,2.6-0.6h0.2c0.3-0.1,0.8-0.1,1.1-0.2h0.1c0.9-0.2,1.7-0.5,2.6-0.7c-8.6,0.3-17.2-0.5-25.6-2.4
			c-12.6-2.8-24.7-7.7-34.9-16.2c-16.3-13.6-25.7-33.8-25.5-55c0.1-15.6,5.6-30.7,15.7-42.7c13.1-15.5,31.7-23.7,50.7-24.1h2.6V80.6
			h-3c-5.8,0.1-11.6,0.8-17.2,2.1c-5.7,1.3-11.2,3.2-16.5,5.6c-5.4,2.5-10.5,5.6-15.2,9.2c-4.9,3.7-9.3,7.9-13.2,12.6
			c-3.7,4.3-6.9,9.1-9.5,14.1c-2.6,4.9-4.7,10-6.3,15.3c-1.5,5.2-2.6,10.6-3.1,16l-0.3,5v3c0.1,5.9,0.8,11.6,2.1,17.2
			c1.3,5.7,3.2,11.3,5.6,16.5c2.9,6.3,8,15.6,15.7,22.6c15.7,12.4,35.1,19.1,55.1,19.1C150.2,238.9,152.3,238.9,152.3,238.9z"/>
		<path class="st0" d="M177.3,224.2c-5.7-0.2-11.3-0.8-16.9-1.8c-23.6-4.2-44-18.7-51.4-40.5c-9.1-26.5,4.8-55.2,31.2-63.9
			c5-1.7,10.3-2.5,15.6-2.5c6.8,0,13.5,1.4,19.8,3.9l6.4-13.7c-1.9-0.8-3.9-1.5-5.9-2.2c-6.6-2.1-13.4-3.1-20.3-3.1
			c-6.9,0-13.8,1.1-20.3,3.3c-8.4,2.8-16.1,7.2-22.6,13.1c-3.2,2.8-6,5.9-8.6,9.3c-2.5,3.3-4.7,6.9-6.5,10.7
			c-3.7,7.6-5.9,15.8-6.4,24.2c-0.6,8.7,0.6,17.4,3.4,25.7c2.9,8.5,7.6,16.3,13.8,22.8c5.6,6.1,12.2,10.7,20.1,14.9
			c8.3,4.4,18.5,6.7,29.2,8.2c6.9,0.9,16.1,1.1,21.5,1.1c4.7-1.7,6.7-2.5,9.2-3.6c2.2-1,4.4-2.1,6.5-3.3s2.5-1.5,6.2-3.9
			c0.3-0.2,0.6-0.4,0.9-0.7C189.5,224.4,186.3,224.3,177.3,224.2z"/>
		<path class="st0" d="M205.6,207.1c-3.6,0.2-8.6,0.6-14.4,0.6c-10.2,0-22.7-0.9-33.4-4.5c-16.5-5.5-32.1-19.6-32.1-37.1
			c0-17.4,14-31.4,31.4-31.5c0,0,0,0,0.1,0c11.8,0,22,6.5,27.4,16.1l13.7-6.8c-2.1-4-4.9-7.7-8.2-10.9
			c-18.2-18.2-47.6-18.2-65.8-0.1c0,0,0,0-0.1,0.1c-8.7,8.7-13.7,20.6-13.7,32.9c0,6.4,1.4,12.7,4,18.6c2.4,5.3,5.7,10.2,10,14.8
			c7.5,8,17.7,14.5,28.6,18.1c10.4,3.4,25.8,4.7,40.8,3.7c4.1-0.3,7.2-0.7,12.5-1.8c5.1-4,9.7-8.6,13.8-13.7
			C216.6,206,210,206.7,205.6,207.1z"/>
	</g>
</g>
</svg>
