<?xml version="1.0" encoding="utf-8"?>
<!-- Generator: Adobe Illustrator 27.6.1, SVG Export Plug-In . SVG Version: 6.00 Build 0)  -->
<svg version="1.1" id="Layer_1" xmlns="http://www.w3.org/2000/svg" xmlns:xlink="http://www.w3.org/1999/xlink" x="0px" y="0px"
	 viewBox="0 0 283.5 283.5" style="enable-background:new 0 0 283.5 283.5;" xml:space="preserve">
<style type="text/css">
	.st0{fill:#BA9000;}
	.st1{fill:#FFFFFF;}
</style>
<g>
	<path id="Layer" class="st0" d="M162.7,176.5c0,0,1.3-12.3,5.3-13.2c1.1-1.5,1.3-3.5,2.2-4.6c0.9-1.1,2-2,3.7-1.7
		c1.1-1.1,1.1-2.6,2.9-4.6c1.3-1.5,2-1.8,3.1-1.3c1.7-1.5,2.2-3.7,3.5-5.1c0.9-0.7,2.6-1.1,3.5-0.7c1.5-1.3,3.1-5.3,4.8-6.6
		c1.1-0.9,2.6-0.9,3.5-0.4c1.8-1.3,3.3-4.8,4.8-6.8c0.4-0.7,1.5-2.4,3.7-1.8c2.6-1.8,4-7.3,5.5-9.5c2-2.4,3.9-1.8,3.9-1.8
		c1.3-6.4,4-10.8,6.4-11.6c0,0-0.2,2.6,1.3,3.5c0,0-0.2-2,0.9-5.9c1.8-6.6,4.6-8.4,4.6-8.4s0,2.4,1.3,3.3c0,0,0-4.6,1.1-8.1
		c1.1-4.2,3.3-6.6,4.6-6.8c0,0,0.2,3.7,2,5.1c0,0,0.9-5.5,2.4-8.6c2.9-6.4,5.9-6.4,5.9-6.4s-1.1,2.4-0.9,6.4
		c0.2,4.4,0.7,4.4,0.7,4.6c0,0,1.1-4.4,2.6-9.2c2.9-8.8,6.6-11,8.8-9.7c0,0-1.5,2.2-3.3,10.1c-2.2,9.2-1.8,11.6-1.8,11.6
		s0.9-2.6,1.8-5.1c2.4-7.2,5-13.6,7.9-11.9c0,0-2.2,10.3-4.8,21.3c-2,8.6-4.6,17.4-6.8,22.4c-5.3,11.9-35.8,44.4-45.9,57.4
		c-4.6,7.9-5.7,8.4-5.3,13.6c0.2,2.9,0.9,4.2,0.7,4c-6.8-5.9-17.3-4.8-25.9-8.1C166.2,180,162.7,176.5,162.7,176.5L162.7,176.5z"/>
	<path id="Layer_00000116940794151360757560000007929024035503055804_" class="st0" d="M143.6,176.1c0,0,3.5-0.9,5.9,2
		c1.8,2,2.4,4,3.5,6.4c1.1,2.2,3.1,2.4,3.1,2.4s-2.2,0.9-5.3,3.1c-3.5,2.6-5.1,5.9-5.1,5.9s4-2.4,7.7,0c2.9,1.7,5.3,2,5.3,2
		s-4,2-7,5.9c-2.6,3.3-1.5,5.9-1.5,5.9s0.7-1.3,2.4-2c2-0.9,4,0,4,0s-1.7,0.9-4,4.6c-1.5,2.9-4.6,3.7-4.6,3.7s1.1,1.1,4.4,1.5
		c3.1,0.4,5.3-1.3,6.6-2.4c2-1.5,3.7-1.8,3.7-1.8c-2.2,7,2.2,9.5,2.2,9.5s0.9-2.9,3.7-5.7c4.2-4,9.2-4,9.2-4s-3.5,1.5-5.9,5.5
		c-2.4,3.7-3.7,9,0,18.3c6.4,16.3,16.7,17.8,16.7,17.8s-5.9,6.4-14.5,8.4c-11.6,2.6-15.8-0.9-15.8-0.9s-0.2,1.3,0.7,2.6
		c1.1,1.8,3.7,3.1,3.7,3.1s-6.8,3.8-20.2-1.5c-13.6-5.3-14.3,1.5-14.3,1.5s-0.9-0.9-0.9-3.1c0-1.1,1.1-3.1,1.1-3.1s-4.6,3.7-8.8,4
		c-5,0.4-9.2-0.9-12.3-2.6c-3.7-2.2-6.6-2.9-6.6-2.9s1.7-0.2,6.1-3.1c4.4-2.9,4.4-5.5,4.4-5.5s-3.5,2.4-8.4,3.5
		c-10.1,2.2-13.6-3.1-13.6-3.1s4,1.3,9.7-2c5.7-3.3,9.2-7,9.2-7s-6.2,1.3-13.8,0c-14.1-2.2-16.5-16.9-16.5-16.9s7.7,8.6,19.8,3.1
		c12.3-5.5,27.7-10.8,27.7-10.8c-3.1-1.7-9.9-3.1-10.1-5.9c0-1.3-1.5-2.2-2.6-2.6c-2.2-0.7-5.5-2.9-5.7-5.5
		c-0.4-2.4-6.4-2.9-6.8-6.6c-2-2.9-8.4-5.5-10.8-9.5c-1.8-2.9-0.2-5.3-0.2-5.3s-1.3-3.1-6.1-8.8c-4-4.6-5.7-8.1-6.2-12.1
		c-0.2-2.4,1.1-4.2,1.1-4.2s-0.4-2.9-2.4-5.5c-1.8-2.2-1.5-5.5,0.2-7c0,0-1.1-2.2-3.1-5.7c-2.2-4.2,0.2-5.3,0.2-5.3
		s-0.4-2.2-1.5-3.7c-1.8-2.9-2.9-4.6-0.9-6.6c0,0-0.4-1.3-4.2-4.4c-12.1-9.9-6.8-12.1-6.8-12.1s-0.4-0.6-2.6-2.4
		c-7.7-6.2-4.4-7.7-4.4-7.7s-1.5-1.1-5.3-3.7c-2.2-1.5-8.1-7.9-6.8-9.9c0,0,0.4-2.6-3.7-7c-4-4-6.6-6.8-9.2-12.1s-5-13.2-2.2-14.5
		c0,0,2.9,3.1,5.3,5.7c2.6,2.6,6.2,4.8,6.2,4.8s-4-7-6.4-12.8c-4-10.1-2.2-16.3-1.5-17.8c0.9-1.5,2.2-1.8,2.2-1.8S34,40,39,47.4
		c4.6,7,10.1,9.3,10.1,9.3s-3.1-4.2-7-15.6c-4-11.4-3.7-20.9-2.2-24.2c1.5-3.3,3.5-2.6,3.5-2.6s0.7,9.2,6.8,24.8S65,58,65,58
		s-3.3-5.7-6.6-13.6c-6.2-15-3.7-21.6-1.1-22.2c0.4-0.2,5,12.5,9.7,21.3c4.6,8.8,11,15,11,15l0.2,0.2c0,0-4.4-14.1-4.8-18.9
		c-0.2-4.8,1.5-7.7,3.7-8.8c1.3-0.4,4.2,12.3,7.9,21.5c5.3,13.6,11.6,20.5,11.6,20.5s0-3.3,0.2-5.5c0.4-3.5,1.1-5.3,3.1-5.9
		c0.7-0.2,4.2,12.7,8.6,20.7c9.9,18,13.2,20.4,13.2,20.4s0.2-3.3,2.2-3.3c0,0,3.1,2,13,37.4c5.9,21.3,19.8,37.2,19.8,37.2
		s-3.1-1.1-7.2,0.2C146.9,175,143.6,176.1,143.6,176.1L143.6,176.1z"/>
	<path id="Layer_00000080200870105385473660000006823941868822869178_" class="st1" d="M166,223.4c0,0-4.4-2.4-2.2-9.5
		c0,0-2,0.2-3.7,1.8c-1.3,0.9-3.5,2.9-6.6,2.4c-3.3-0.4-4.4-1.5-4.4-1.5s3.1-0.9,4.6-3.8c2-3.7,4-4.6,4-4.6s-2-0.7-4,0
		c-1.7,0.7-2.4,2-2.4,2s-1.1-2.6,1.5-5.9c2.9-3.7,7-5.9,7-5.9s-2.4-0.2-5.3-2c-3.7-2.2-7.7,0-7.7,0s1.3-3.3,5.1-5.9
		c3.1-2.2,5.3-3.1,5.3-3.1s-2-0.2-3.1-2.4c-1.3-2.2-1.8-4.4-3.5-6.4c-2.4-2.6-5.9-1.7-5.9-1.7s2.2-2,4.6-2.6
		c4.2-1.3,7.2-0.2,7.2-0.2s1.1,0.2,2.9,1.1c1.8,0.9,3.5,2.2,3.5,2.2s3.3,3.1,8.6,5.1c8.6,3.3,19.1,2,25.9,8.1c0,0,5.3,5.5,5.7,10.6
		c0.7,6.6-1.5,11.9-4.6,15c-1.5,1.5-7.5,1.7-7.5,1.7s-2-2.2-6.2-3.3c-3.5-0.9-5.9-0.4-5.9-0.4s-5.1,0-9.2,4
		C166.6,220.7,166,223.4,166,223.4L166,223.4z"/>
	<path id="Layer_00000028297508790875825440000005053656555136609470_" class="st0" d="M186,212.6c-2.2-2.4-1.3-4.4-2.2-7
		c-1.3-3.5-1.8-3.3-1.8-3.3s3.3,1.3,8.6,4.8c5.9,3.7,4,9.5,4,9.5s2-0.4,3.7-2.4c3.3-3.7,4.6-11.7,4.6-11.7c2.9,13-4,16.5-4,16.5
		s2,7.3-2.9,9.9c-3.5,2.2-9.4,1.5-9.4,1.5s4.8-1.3,5.3-6.6c0.2-3.3-2-6.8-2-6.8s0.9-0.4,0.9-1.1C191.2,214.1,188.6,215.2,186,212.6
		L186,212.6z"/>
</g>
</svg>
