<?xml version="1.0" encoding="utf-8"?>
<!-- Generator: Adobe Illustrator 26.3.1, SVG Export Plug-In . SVG Version: 6.00 Build 0)  -->
<svg version="1.1" id="Layer_1" xmlns="http://www.w3.org/2000/svg" xmlns:xlink="http://www.w3.org/1999/xlink" x="0px" y="0px"
	 viewBox="0 0 2000 2000" style="enable-background:new 0 0 2000 2000;" xml:space="preserve">
<style type="text/css">
	.st0{fill:#D35756;}
	.st1{fill:#FFFFFF;}
</style>
<circle class="st0" cx="1000" cy="1000" r="1000"/>
<path class="st1" d="M1626.4,684.2l-405.9,213.3v247.3l139.6-74.3V1214l-393.3,227.1l-316.1-182.6c-47.9-27.6-77.2-78.7-77.2-133.9
	V759.7l326.2-188.3c41.5-23.9,92.6-23.9,134.2,0L1360,759.7l199.7-115.3L1051.5,351c-52.5-30.2-117.1-30.2-169.7,0L373.6,644.5
	v595.4c0,55.4,29.6,106.5,77.5,134.3l515.5,297.6l514.9-297.2c48.4-27.9,78.2-79.6,78.2-135.5V964.3l66.5-35.3L1626.4,684.2
	L1626.4,684.2z"/>
</svg>
