<?xml version="1.0" encoding="utf-8"?>
<!-- Generator: Adobe Illustrator 26.3.1, SVG Export Plug-In . SVG Version: 6.00 Build 0)  -->
<svg version="1.1" id="Layer_1" xmlns="http://www.w3.org/2000/svg" xmlns:xlink="http://www.w3.org/1999/xlink" x="0px" y="0px"
	 viewBox="0 0 1000 1000" style="enable-background:new 0 0 1000 1000;" xml:space="preserve">
<style type="text/css">
	.st0{fill:#007F88;}
	.st1{fill:#FFFFFF;}
</style>
<circle class="st0" cx="500" cy="500" r="500"/>
<g id="Layer_2_00000139993751789496315550000003189213669279606706_">
	<g id="Layer_1-2">
		<path class="st1" d="M210.4,280.1c-9.3,0.7-16.4,2.2-16,3.3c3.7,8.8,26.5,60.5,26.8,60.8s5.6,0.7,11.9,0.9
			c27.7,1,49.5,6.4,73.2,18.1c17,8.4,29.6,17.4,42.7,30.4c19.3,19.2,31.9,40.6,39.2,66.8c0.8,3,1.5,5.7,1.5,6.1
			c0,0.6-4.2,0.7-22.8,0.7c-12.6,0-23.4,0.2-24.1,0.5c-1,0.4-3.6,6-14.4,30.8c-7.3,16.7-13.3,30.7-13.4,31.2
			c-0.4,1.4,4,2.5,14.9,4.2c2.2,0.4,15.6,0.7,31.5,0.9l27.6,0.3l-1.7,5.7c-18.6,63.1-76.4,107.2-147.1,112.6
			c-4,0.3-9.3,0.5-11.7,0.5h-4.4l-13.6,31.3c-11.7,26.8-13.5,31.3-12.7,31.6c3.5,1.3,11.4,1.8,29.7,1.8c23.4,0,34.8-1,54.1-5
			c78.8-16.2,144.2-66.3,173.8-133.2c5.7-12.9,12.4-34.1,13.6-43l0.4-2.5h59.1l0.2,1.1c4.3,20.9,8.9,35,16.9,51.6
			c24.1,50.1,69.2,91,125.1,113.5c33.9,13.6,70.3,20.1,106.8,19.2c15.3-0.5,27.4-2.2,26.8-3.8c-0.5-1.4-26.4-60.8-26.6-60.9
			c-0.2-0.2-5.5-0.4-12-0.6c-18.2-0.7-32-2.9-47.5-7.3c-23.9-6.9-47.5-19.3-65.6-34.5c-22.8-19.2-39.2-43-48-69.5
			c-1-3-2-6.2-2.1-7.1l-0.4-1.7l22.3-0.2c12.2-0.1,22.6-0.4,23-0.6c0.7-0.4,27.3-60.7,27.3-61.9c0-0.8-6.7-2.8-12.8-3.7
			c-4.5-0.7-10.1-0.9-32.8-1.1l-27.4-0.3l1-3.7c15.2-53.8,61.8-96.4,121.8-111.6c13.3-3.3,26.1-5,42.9-5.7c10-0.4,11.2-0.6,11.9-1.4
			c0.4-0.6,6.6-14.3,13.6-30.6c8.7-19.9,12.7-29.7,12.3-30c-1.1-0.6-8.4-1.9-14.1-2.5c-8.3-0.9-32.6-0.7-43.3,0.2
			c-61.2,5.5-116.4,30.2-157.8,70.5c-25.3,24.6-43,52.3-53.9,84.2c-2.8,8.1-6.2,20.7-7.2,26.9l-0.6,3.8h-58.1l-0.2-1.2
			c-0.2-0.6-0.7-3.6-1.4-6.6c-8.6-42.6-32.8-84.1-67-114.6c-38.9-34.8-87.5-56.6-140.9-63.2C244.8,279.7,224.1,279.1,210.4,280.1z"
			/>
	</g>
</g>
</svg>
