<?xml version="1.0" encoding="utf-8"?>
<!-- Generator: Adobe Illustrator 26.3.1, SVG Export Plug-In . SVG Version: 6.00 Build 0)  -->
<svg version="1.1" id="Layer_1" xmlns="http://www.w3.org/2000/svg" xmlns:xlink="http://www.w3.org/1999/xlink" x="0px" y="0px"
	 viewBox="0 0 2210 2210" style="enable-background:new 0 0 2210 2210;" xml:space="preserve">
<style type="text/css">
	.st0{fill:#FF564F;}
	.st1{fill:#FF827E;}
	.st2{fill:#F08179;}
	.st3{fill:#FFFFFF;}
</style>
<circle class="st0" cx="1105" cy="1105" r="1105"/>
<g>
	<path class="st1" d="M653.4,1519.9l69.4,207.7l476.1-622.6L722.7,482.4L650,685.6l316.3,419.3L653.4,1519.9z"/>
	<path class="st2" d="M1668.3,1727.5h-225.9l-476.2-622.6l476.2-622.5h225.9l-469.5,622.5L1668.3,1727.5z"/>
	<path class="st3" d="M541.5,482.4h181.1v1245.1H541.5V482.4z"/>
	<g>
		<path id="_x30_" class="st0" d="M1668.5,1727.5h-225.9l-476.2-622.6l476.2-622.5h225.9l-469.5,622.5L1668.5,1727.5z"/>
	</g>
	<g>
		<path id="_x30__1_" class="st0" d="M1668.5,1727.5h-225.9l-476.2-622.6l476.2-622.5h225.9l-469.5,622.5L1668.5,1727.5z"/>
	</g>
	<g>
		<path id="_x30__2_" class="st0" d="M1668.5,1727.5h-225.9l-476.2-622.6l476.2-622.5h225.9l-469.5,622.5L1668.5,1727.5z"/>
	</g>
	<g>
		<path id="_x30__3_" class="st3" d="M1668.5,1727.5h-225.9l-476.2-622.6l476.2-622.5h225.9l-469.5,622.5L1668.5,1727.5z"/>
	</g>
</g>
</svg>
