<?xml version="1.0" encoding="utf-8"?>
<!-- Generator: Adobe Illustrator 26.3.1, SVG Export Plug-In . SVG Version: 6.00 Build 0)  -->
<svg version="1.1" id="Layer_1" xmlns="http://www.w3.org/2000/svg" xmlns:xlink="http://www.w3.org/1999/xlink" x="0px" y="0px"
	 viewBox="0 0 212 212" style="enable-background:new 0 0 212 212;" xml:space="preserve">
<style type="text/css">
	.st0{fill:#FFFFFF;}
</style>
<circle cx="106" cy="106" r="106"/>
<g>
	<path class="st0" d="M166,66.3c0,5.3,0,10.6,0,15.9c0,3-0.8,3.9-3.7,3.9c-10.8,0-21.5,0-32.3,0c-3.1,0-3.9-0.8-3.9-3.9
		c0-10.8,0-21.7,0-32.5c0-2.8,0.9-3.7,3.7-3.7c10.8,0,21.7,0,32.5,0c2.9,0,3.7,0.9,3.7,3.9C166,55.4,166,60.8,166,66.3z"/>
	<path class="st0" d="M66.2,86.1c-5.3,0-10.6,0-15.9,0c-3.3,0-4.2-0.8-4.2-4.1c0-10.6,0-21.2,0-31.9c0-3.3,0.9-4.1,4.2-4.1
		c10.6,0,21.1,0,31.7,0c3.4,0,4.2,0.8,4.2,4.1c0,10.6,0,21.2,0,31.9c0,3.3-0.8,4.1-4.2,4.1C76.6,86.1,71.4,86.1,66.2,86.1z"/>
	<path class="st0" d="M106,126c-5.5,0-10.9,0-16.4,0c-2.7,0-3.6-0.9-3.6-3.6c0-11,0-22,0-33c0-2.7,0.8-3.4,3.5-3.4c11,0,22,0,33,0
		c2.7,0,3.5,0.8,3.5,3.6c0,10.9,0,21.8,0,32.7c0,2.7-0.9,3.6-3.6,3.6C117,126.1,111.5,126,106,126z"/>
	<path class="st0" d="M146.1,126c5.3,0,10.6,0,15.9,0c3.1,0,3.9,0.8,3.9,3.8c0,10.8,0,21.5,0,32.3c0,3-0.8,3.8-3.7,3.8
		c-10.8,0-21.7,0-32.5,0c-2.8,0-3.7-0.9-3.7-3.7c0-10.9,0-21.8,0-32.7c0-2.8,0.8-3.6,3.5-3.6C135.1,126,140.6,126,146.1,126z"/>
	<path class="st0" d="M66.2,126c5.5,0,10.9,0,16.4,0c2.7,0,3.5,0.9,3.5,3.6c0,10.9,0,21.8,0,32.7c0,2.8-0.9,3.6-3.8,3.6
		c-10.8,0-21.7,0-32.5,0c-2.9,0-3.8-0.9-3.8-3.9c0-10.8,0-21.5,0-32.3c0-3,0.8-3.8,3.8-3.8C55.3,126,60.7,126,66.2,126z"/>
</g>
</svg>
