<?xml version="1.0" encoding="utf-8"?>
<!-- Generator: Adobe Illustrator 26.3.1, SVG Export Plug-In . SVG Version: 6.00 Build 0)  -->
<svg version="1.1" id="Layer_1" xmlns="http://www.w3.org/2000/svg" xmlns:xlink="http://www.w3.org/1999/xlink" x="0px" y="0px"
	 viewBox="0 0 2000 2000" style="enable-background:new 0 0 2000 2000;" xml:space="preserve">
<style type="text/css">
	.st0{fill:url(#SVGID_1_);}
</style>
<linearGradient id="SVGID_1_" gradientUnits="userSpaceOnUse" x1="0" y1="1000" x2="2000" y2="1000">
	<stop  offset="0" style="stop-color:#D3B558"/>
	<stop  offset="0.9651" style="stop-color:#DFC97C"/>
</linearGradient>
<circle class="st0" cx="1000" cy="1000" r="1000"/>
<g>
	<path d="M999,1815c-446.3-0.8-808.8-360.7-813.9-805.4c-5.1-453.3,359.1-819.3,805-824.4c455.7-5.2,824.4,363.1,824.8,813
		C1815.3,1450,1450.8,1814.6,999,1815z M1745.7,1000.2c0.4-408.7-334-744.6-742.1-745.5c-413.5-0.8-747.6,333.1-748.1,747.7
		c-0.5,409.1,335,742.3,747.8,742.8C1410.6,1745.7,1745.4,1409.7,1745.7,1000.2z"/>
	<path d="M836.5,1298.3c-88.4,0-175.1,0-262.7,0c0-211,0-419.8,0-631.2c7.8,0,15.1,0,22.3,0c73.3,0.1,146.6-0.3,219.9,0.5
		c16.6,0.2,21.1-5,20.8-21.3c-0.9-59.7-0.4-119.3-0.4-179c0-4.5-0.2-9.1,0.1-13.6c1.2-22.5,16.1-37.5,36.5-36.7
		c19.7,0.7,33.2,15.6,33.3,37.7c0.2,63.7,0.1,127.3,0,191c0,6.6,0,13.3,0,20.8c60.8,0,119.1,0,179.3,0c0.3-7.2,0.9-13.8,0.9-20.4
		c0.1-63.1-0.2-126.2,0.2-189.3c0.2-29.2,22-46.3,46.5-37.5c15.6,5.6,23.2,18,23.3,39.4c0.2,62.5,0.1,125,0.1,187.5
		c0,6.2,0,12.4,0,21.1c8,0,14.6,0,21.2,0c69.9,0,139.8,0.2,209.7,0c16,0,29.2,4.2,36.6,19.6c10,20.7-1.3,44.4-23.9,48.9
		c-8.3,1.6-17,1.3-25.5,1.3c-235.3,0.1-470.6,0.2-705.9,0.2c-7.8,0-15.7,0-24.7,0c0,164,0,326.2,0,489.7c233.8,0,467.1,0,701.9,0
		c0-72.6,0-145.4,0-220c-7.8-0.4-15.6-1.1-23.3-1.1c-141.5,0-283,0.1-424.5,0.2c-32.1,0-48.4-11.7-48.7-34.8
		c-0.3-23.3,15.9-35.3,47.9-35.3c165.4,0.1,330.8,0.2,496.2,0.3c7.3,0,14.5,0,22.8,0c0,121.1,0,240.1,0,361.5c-7.2,0-13.8,0-20.4,0
		c-73.9,0-147.8,0.4-221.6-0.3c-14.4-0.1-18.4,4.4-18.2,18.3c0.7,58,0.3,115.9,0.3,173.9c0,7.4,0.2,14.8-0.7,22.1
		c-2.2,18.7-16.3,31.2-34.5,31.1c-18.6,0-33.5-13.5-34.3-33.1c-0.9-22.1-0.3-44.3-0.3-66.5c0-42.1-0.4-84.1,0.4-126.2
		c0.3-14.1-2.7-20.1-18.6-19.8c-48.3,1.1-96.6,0.8-144.9,0.1c-13.4-0.2-17.5,3.6-17.4,17.2c0.7,64.2,0.3,128.4,0.3,192.7
		c0,16.7-8,28.3-23.7,33.6c-15,5.1-29.4,1.6-37.7-11.7c-5.3-8.5-7.9-20.1-8-30.3c-0.7-60.2-0.4-120.5-0.4-180.7
		C836.5,1312.6,836.5,1306.5,836.5,1298.3z"/>
</g>
</svg>
