<?xml version="1.0" encoding="utf-8"?>
<!-- Generator: Adobe Illustrator 26.3.1, SVG Export Plug-In . SVG Version: 6.00 Build 0)  -->
<svg version="1.1" id="Layer_1" xmlns="http://www.w3.org/2000/svg" xmlns:xlink="http://www.w3.org/1999/xlink" x="0px" y="0px"
	 viewBox="0 0 26 26" style="enable-background:new 0 0 26 26;" xml:space="preserve">
<style type="text/css">
	.st0{fill:#00A7FF;}
	.st1{fill:#FFFEFF;}
	.st2{fill:#85DDFF;}
	.st3{fill:#00B8FF;}
</style>
<circle class="st0" cx="13" cy="13" r="13"/>
<g>
	<path class="st1" d="M8.3,12.2l-0.1,0.2c-1.4,2.2-1.1,5.1,0.8,7c1,1.1,2.5,1.7,4,1.7C13,21,13,21,8.3,12.2z"/>
	<path class="st2" d="M13,14.8l-4.7-2.7C13,21,13,21,13,21C13,19.1,13,16.9,13,14.8z"/>
	<path class="st2" d="M17.7,12.2l0.1,0.2c1.4,2.2,1.1,5.1-0.8,7c-1.1,1.1-2.5,1.7-4,1.7C13,21,13,21,17.7,12.2z"/>
	<path class="st3" d="M13,14.8l4.7-2.7C13,21,13,21,13,21C13,19.1,13,16.9,13,14.8z"/>
	<path class="st3" d="M13,8.9v4.6l4.1-2.3L13,8.9z"/>
	<path class="st2" d="M13,8.9l-4.1,2.3l4.1,2.3V8.9z"/>
	<path class="st1" d="M13,5l-4.1,6.2L13,8.9V5z"/>
	<path class="st2" d="M13,8.9l4.1,2.3L13,5V8.9z"/>
</g>
</svg>
