<?xml version="1.0" encoding="utf-8"?>
<!-- Generator: Adobe Illustrator 26.3.1, SVG Export Plug-In . SVG Version: 6.00 Build 0)  -->
<svg version="1.1" id="Layer_1" xmlns="http://www.w3.org/2000/svg" xmlns:xlink="http://www.w3.org/1999/xlink" x="0px" y="0px"
	 viewBox="0 0 300 300" style="enable-background:new 0 0 300 300;" xml:space="preserve">
<style type="text/css">
	.st0{fill:#2844AD;}
	.st1{fill:#5493F7;}
	.st2{fill:#3C3B6E;}
	.st3{fill:#B12234;}
	.st4{fill:#FEFEFE;}
	.st5{fill:#FDFDFD;}
	.st6{fill:#FDFDFE;}
</style>
<g>
	<path class="st0" d="M160.2,180.4c0,0-32.8,17.2-31.3,44.2s37.8,68.1,59.7,60s82.8-43.4,89-78.1s-54.4-51.9-54.4-51.9L160.2,180.4z
		"/>
	<path class="st0" d="M244.9,33.1C204-0.2,147.7-7.2,99.9,15L64.4,65.6c3.5,11.6,12.5,20.6,24,24c20.3,6.7,108.3-27.2,108.3-27.2
		L244.9,33.1z"/>
	<path class="st1" d="M13.8,82.8c0,0,29.7-54.5,69.4-67.2c39.7-12.7,34.1,27,0,43.1C49,74.8,27.6,84.1,13.8,82.8z"/>
	<path class="st1" d="M8.1,99.7c0,0-45.7,128,79.4,186.3c0,0,9.7-51.1-8-83.5c-13.1-25.9-28.9-50.3-47.2-72.8
		C23.6,120.2,15.5,110.2,8.1,99.7z"/>
	<path class="st1" d="M281.9,223.4c0,0-32.6,62.5-79.8,62.5c-4.8-1.5-7.4-6.6-6-11.4c0.1-0.3,0.2-0.6,0.3-0.8
		C199.4,264.7,228.9,232.5,281.9,223.4z"/>
	<path class="st1" d="M246,34.1c18.2,13.9,32.5,32.4,41.4,53.6c14.4,34.7,16.5,73.3,6,109.4c-8,21.1-20.3,15.6-46.9,10
		c-26.6-5.6-127.7-34.1-153.8-68.8s-6-62.5,27.8-80.5S223.6,20.3,246,34.1z"/>
	<path class="st2" d="M105.5,249.9l-2.4-56l0,0l75.6-4.5l0,0c0,2.5,0,5,0,7.5s0,5.3,0,8c0,2.7,0,5.5,0,8.1s0,5.3,0,8
		c0,2.7,0,5.5,0,8.1s0,5.5,0,8.1s0,5,0,7.3c0,2.3,0,0,0,0l0,0l0,0l-73.4,4.4C105.3,248.9,105.9,250.1,105.5,249.9z"/>
	<path class="st3" d="M297.2,278.7c0,2.5,0,5.2,0,7.7s0,0,0,0l0,0l-189.1,11.4l0,0c0,0,0-5,0-7.5h1.3l187.5-11.2
		C296.9,279.1,296.8,278.4,297.2,278.7z"/>
	<path class="st4" d="M297.2,278.7h-0.8l-188.8,11.4l0,0v-8.1h1.3l187.5-11.2c0.4-0.2,0.8-0.2,1.3,0L297.2,278.7z"/>
	<path class="st4" d="M296.3,254.7v8.1h-0.9l-187.5,11.4c-0.4,0.2-0.8,0.2-1.3,0v-8.1h1.4l187.5-11.4
		C295.5,254.7,296,254.7,296.3,254.7z"/>
	<path class="st3" d="M296.3,254.7L296.3,254.7l-189.1,11.4l0,0v-8l0,0l0,0l187.6-11.4c0,0,0.9,0,1.4,0L296.3,254.7z"/>
	<path class="st4" d="M296.2,246.4h-0.8l-189,11.4l0,0v-8.1l0,0l74.9-4.4h1.9l111.7-6.7c0,0,0.8,0,1.3,0V246.4L296.2,246.4z"/>
	<path class="st3" d="M106.4,274.1L106.4,274.1l189-11.4l0,0v8l0,0l-189,11.4l0,0V274.1z"/>
	<path class="st3" d="M180,196.9v-8.1l113.6-6.9l0,0c0,0,0,5.2,0,7.7h-1.4l-111,7.3C181.3,196.9,180.3,197.2,180,196.9z"/>
	<path class="st4" d="M180,196.9l13.7-0.9l99.6-6l0,0v8l0,0l0,0l-112.1,7c-0.3,0.3-0.9,0.3-1.3,0L180,196.9L180,196.9z"/>
	<path class="st4" d="M181.3,237.2v-8.1h1.3l111.6-6.9c0,0,0.9,0,1.3,0v8.1l0,0l0,0L183.5,237C183.5,237,181.3,237.5,181.3,237.2z"
		/>
	<path class="st3" d="M295.2,222.2L295.2,222.2l-114,6.9l0,0V221h1.3l111.6-6.7c0,0,0.9,0,1.3,0L295.2,222.2z"/>
	<path class="st4" d="M294.9,214.1l-22.8,1.4l-90.8,5.5v-8l0,0l0,0l112-6.7h1.1L294.9,214.1z"/>
	<path class="st3" d="M181.3,237.2l113.3-6.8l0,0v7.9l0,0l-113,6.7l0,0L181.3,237.2z"/>
	<path class="st3" d="M294.7,205.9H294L181.3,213v-8.2l35-2l78.1-4.9l0,0L294.7,205.9z"/>
	<path class="st5" d="M160.4,232.2v-1.9c0,0,0,0,0-0.8c-0.5-0.2-0.9-0.6-1.3-0.9h1.7l0,0v-1.9c0,0,0,0.9,0,1.4s0,0.8,1.1,0h1.3
		l-1.3,1.1l0,0c-0.1,0.6-0.1,1.2,0,1.7l-1.5-0.9l0,0C160.4,230.1,160.4,232.2,160.4,232.2z"/>
	<path class="st5" d="M121.3,230.9h1.4c0,0,0,0,0.8,0c-0.1-0.5-0.1-1,0-1.5c0,0,0,1.1,0,1.7s0,0,0,0h1.9c0,0,0,0.8-1.3,0.9
		c-1.3,0.2,0,0,0,1.3c0.1,0.4,0.1,0.9,0,1.4l-1.4-0.9l0,0c-0.4,0.4-0.9,0.8-1.4,1.1c0.1-0.6,0.1-1.2,0-1.7c0,0,0,0,0-0.8l-1.4-0.9
		L121.3,230.9z"/>
	<path class="st5" d="M144.3,216.1l-1.4-0.9l0,0l-1.4,1.3c-0.1-0.6-0.1-1.3,0-1.9l0,0l-1.4-1.1h1.7l0,0c-0.1-0.6-0.1-1.3,0-1.9v1.4
		c0,0,0,0,0.9,0h1.4l-1.3,1.1c-0.1,0.2-0.1,0.6,0,0.8C143.4,215.2,143.8,215.6,144.3,216.1z"/>
	<path class="st5" d="M121.1,200.5v-1.7 M121.1,198l-1.3-0.9h1.4c0,0,0.8,0,0.8-0.8c0.1-0.4,0.1-0.9,0-1.4c0.1,0.6,0.1,1.2,0,1.7
		l0,0h1.5c-0.3,0.4-0.7,0.8-1.1,1.1 M122.5,198.4c-0.1,0.6-0.1,1.2,0,1.7l-1.5-0.9l0,0L122.5,198.4z"/>
	<path class="st5" d="M163.6,194.5l-1.1,0.8c-0.3,0.3-0.4,0.8-0.2,1.1c0.1,0.1,0.1,0.1,0.2,0.2v1.4L161,197l0,0l-1.4,1.3v-1.9l0,0
		l-1.4-1.1h1.5c0,0,0,0,0.8,0c-0.1-0.5-0.1-1,0-1.5c0,0,0,0,0,0.9s0,1.1,1.4,0.9h1.1L163.6,194.5z"/>
	<path class="st5" d="M114.2,214.3h1.7l0,0v-1.7c0.1,0.6,0.1,1.2,0,1.7l0,0h1.7c-0.3,0.4-0.8,0.7-1.3,0.9 M116.4,216.4v1.5L115,217
		c0,0,0,0-0.8,0l-1.4,1.1c-0.1-0.5-0.1-1,0-1.5c0,0,0-0.8,0-1.1h-1.1L116.4,216.4z"/>
	<path class="st5" d="M157.8,211.9l-1.4,1.1l0,0c0.1,0.6,0.1,1.2,0,1.7l-1.4-0.9c0,0,0,0-0.8,0c-0.4,0.5-0.9,0.9-1.4,1.3
		c0-0.8,0-1.4,0-1.9s0,0,0,0c-0.5-0.3-0.9-0.7-1.3-1.1h1.5l0,0c-0.1-0.6-0.1-1.2,0-1.7v1.3c0,0.9,0,0.9,1.1,0.8h1.3L157.8,211.9z"/>
	<path class="st6" d="M174.5,225.5c0.1,0.6,0.1,1.2,0,1.7l0,0h1.7l-1.3,0.9c0,0,0,0,0,0.9c0.2,0.5,0.2,1,0,1.5l-1.4-0.9l0,0
		c-0.4,0.5-0.8,0.9-1.4,1.1v-1.5c0,0,0,0,0-0.9c-0.5-0.2-0.9-0.6-1.3-0.9h1.7l0,0L174.5,225.5z"/>
	<path class="st6" d="M134.4,230.2h1.5l0,0c-0.1-0.6-0.1-1.2,0-1.7v1.5 M136.9,230h1.4l-1.3,1.1c0,0,0,0,0,0.8
		c0.1,0.6,0.1,1.2,0,1.7l-1.4-0.9l0,0l-1.4,1.3V232c0.1-0.2,0.1-0.6,0-0.8h-1.3L136.9,230z"/>
	<path class="st5" d="M110,195.4c0,0.5,0,1,0,1.5l0,0h1.5l-1.1,0.9c0,0,0,0,0,1.1c0,0.5,0,1,0,1.5l-1.5-1.1l0,0l-1.4,0.9v-1.5l0,0
		l-1.5-0.9h1.7c0,0,0,0,0.8,0C108.8,197,109.4,196.2,110,195.4z"/>
	<path class="st5" d="M137.2,199.5l-1.4-0.9l0,0l-1.4,1.3c-0.1-0.6-0.1-1.3,0-1.9l0,0l-1.4-1.1h1.4l0,0v-1.5c0.1,0.6,0.1,1.2,0,1.7
		l0,0h1.7l-1.4,1.1c0,0,0,0,0,0.8C135.6,198.9,136.4,199.1,137.2,199.5z"/>
	<path class="st5" d="M148,193.1c0.1,0.6,0.1,1.2,0,1.7l0,0h1.7l-1.4,1.3l0,0c0,0,0,1.1,0,1.7l-1.3-0.9c0,0-0.8,0-1.1,0l-1.1,0.9
		c-0.1-0.5-0.1-1,0-1.5 M144.9,195.3l-1.4-0.9h1.9l0,0L144.9,195.3z"/>
	<path class="st5" d="M175.2,197.2l-1.4-0.9l0,0l-1.5,1.3c0.1-0.6,0.1-1.3,0-1.9l0,0c-0.5-0.3-0.9-0.7-1.3-1.1h1.5l0,0
		c-0.1-0.6-0.1-1.2,0-1.7c-0.1,0.6-0.1,1.2,0,1.7l0,0c0.6-0.2,1.2-0.2,1.7,0l-1.3,1.1l0,0c0.1,0.5,0.1,1,0,1.5
		C172.9,197.2,175.2,197.2,175.2,197.2z"/>
	<path class="st5" d="M147.7,232.6v-1.5l0,0l-1.5-1.1h1.7l0,0v-1.7c0,0,0,1.3,0,1.7s0,0,0,0h1.9l-1.4,1.3l0,0
		c-0.1,0.6-0.1,1.2,0,1.7l-1.5-0.9l0,0l-1.3,1.1L147.7,232.6z"/>
	<path class="st5" d="M114.1,231.4l-1.4,1.1l0,0c0.1,0.6,0.1,1.3,0,1.9l-1.3-0.9c0,0,0,0-1.1,0l-1.3,0.9c0.1-0.6,0.1-1.2,0-1.7
		c0,0,0,0,0-0.8l-1.5-0.9h1.9l0,0c0.1-0.6,0.1-1.3,0-1.9v1.9l0,0h1.7L114.1,231.4z"/>
	<path class="st5" d="M165.7,214.8c-0.1-0.6-0.1-1.2,0-1.7c0,0,0,0,0-0.9v-0.9h1.7l0,0v-1.9c0,0,0,1.3,0,1.7l0,0
		c0.6-0.2,1.2-0.2,1.7,0l-1.3,1.1l0,0c-0.1,0.6-0.1,1.2,0,1.7l-1.4-0.9c0,0,0,0-0.9,0L165.7,214.8z"/>
	<path class="st5" d="M129.5,211.3L129.5,211.3c0,1.4,0,1.4,2,1.4l0,0l-1.3,1.1l0,0c0.1,0.6,0.1,1.2,0,1.7l-1.4-0.9c0,0,0,0-0.8,0
		l-1.3,1.1c-0.1-0.6-0.1-1.2,0-1.7l0,0l-1.4-1.1h1.5l0,0L129.5,211.3z"/>
	<path class="st4" d="M136.9,239c0.1,0.6,0.1,1.2,0,1.7l0,0h1.7l-1.1,1.1c0,0,0,0,0,1.1c0.1,0.4,0.1,0.9,0,1.4l-1.4-0.9l0,0
		c-0.4,0.5-0.9,0.9-1.4,1.3c0-0.8,0-1.3,0-1.9s0,0,0,0l-1.5-1.1h1.4c0.6,0,1-0.4,1.1-0.9C135.9,240.1,136.4,239.5,136.9,239z"/>
	<path class="st6" d="M108.8,243h1.9l0,0v-1.9c0,0.5,0,1,0,1.5l0,0h1.7l-1.4,1.3l0,0c-0.1,0.6-0.1,1.2,0,1.7l-1.5-0.9l0,0l-1.4,1.1
		v-1.7l0,0L108.8,243z"/>
	<path class="st6" d="M148.1,244.1c0,0,0-1.1,0-1.5c0-0.5,0,0,0,0l-1.5-1.1h1.9l0,0l1.5-2.4c0.1,0.6,0.1,1.2,0,1.7l0,0
		c0.5-0.2,1-0.2,1.5,0l-1.4,1.1l0,0c0.1,0.6,0.1,1.2,0,1.7l-0.2-0.6c0,0,0,0-0.8,0l-1.3,0.9L148.1,244.1z"/>
	<path class="st6" d="M175,236.7c0,0,0,1.3,0,1.9s0,0,0,0h1.9l-1.4,1.2c0,0,0,0,0,0.8v1.7l-1.5-1.1l0,0l-1.4,1.3v-1.8l0,0l-0.3-1.5
		h1.7l0,0C174.2,238.2,174.6,237.4,175,236.7z"/>
	<path class="st4" d="M126.1,207.8c-0.6,0.3-1,0.8-1.4,1.3l0,0c0.1,0.6,0.1,1.2,0,1.7l-1.5-0.9l0,0l-1.5,1.3c0.1-0.6,0.1-1.3,0-1.9
		l0,0l-1.5-1.1c0.6-0.1,1.2-0.1,1.7,0c0,0,0,0,0.8-0.8c-0.1-0.4-0.1-0.9,0-1.4c0.1,0.5,0.1,1,0,1.5l0,0L126.1,207.8z"/>
	<path class="st4" d="M163.2,209.4l-1.5-1.1l0,0l-1.4,1.3v-1.9l0,0l-1.5-1.1h1.3c0.9,0,0.9,0,1.3-1.1v-1.3v1.9l0,0h1.7l-1.4,1.3l0,0
		L163.2,209.4z"/>
	<path class="st4" d="M118.8,228.9V228c0,0,0,0-0.9,0l-1.3,1.1c0-0.8,0-1.3,0-1.9s0,0,0,0l-1.4-1.1h1.7l0,0c-0.2-0.6-0.2-1.3,0-1.9
		c0,0,0,1.3,0,1.7l0,0h1.9l-1.5,1.3l0,0C117.7,227.7,118.3,228.3,118.8,228.9z"/>
	<path class="st4" d="M176.7,204.8l-1.4,1.3l0,0c0.1,0.6,0.1,1.2,0,1.7h-0.9l0,0l-1.4,1.3v-1.9l0,0l-1.5-0.9h1.7l0,0
		c0.1-0.6,0.1-1.2,0-1.7c0.1,0.6,0.1,1.3,0,1.9l0,0L176.7,204.8z"/>
	<path class="st4" d="M152.5,223.4h1.9l0,0v-1.9c0.1,0.6,0.1,1.2,0,1.7l0,0h1.7l-1.4,1.3l0,0c-0.1,0.6-0.1,1.3,0,1.9l-1.4-1.1
		c0,0,0,0-0.8,0l-1.4,1.1v-1.8c0,0,0,0,0-0.8L152.5,223.4z"/>
	<path class="st4" d="M132.8,207.8h1.5c0,0,0.8,0,0.9-0.8v-1.5c0,0,0,1.3,0,1.9c0,0.6,0,0,0,0h1.9l-1.4,1.3l0,0
		c0.1,0.6,0.1,1.2,0,1.7l-1.4-0.9l0,0c-0.4,0.5-0.9,0.9-1.4,1.3c0-0.8,0-1.3,0-1.9s0,0,0,0L132.8,207.8z"/>
	<path class="st6" d="M121.4,242.2h1.5c0,0,0.8,0,0.9-0.8c-0.1-0.5-0.1-1,0-1.5c0.1,0.6,0.1,1.2,0,1.7l0,0h1.7l-1.4,1.3l0,0
		c-0.1,0.6-0.1,1.2,0,1.7l-1.5-0.9l0,0l-1.4,1.3v-1.7c0,0,0,0,0-0.9L121.4,242.2z"/>
	<path class="st6" d="M164.2,243.3l-1.4-1.1l0,0l-1.5,1.3c0,0,0-1.3,0-1.7s0,0,0-0.8l-1.5-1.1h1.9l0,0c-0.2-0.6-0.2-1.2,0-1.7v1.1
		c0,0.9,0,0.9,1.4,0.9h2.6l-1.4,1.3c0,0,0,0,0,0.8C164.3,242.6,164.3,242.9,164.2,243.3z"/>
	<path class="st4" d="M127.2,224.8h1.5c0,0,0,0,0-0.8v-1.5c0,0,0,1.3,0,1.9s0,0,0,0h1.9l-1.4,1.3l0,0c-0.1,0.6-0.1,1.2,0,1.7
		l-1.5-0.9l0,0c-0.4,0.4-0.9,0.8-1.4,1.1v-1.8l0,0L127.2,224.8z"/>
	<path class="st4" d="M139.8,223.4h1.9l0,0c0,0,0-1.1,0-1.9v1.7l0,0h1.7l-1.4,1.3l0,0v1.5l-1.4-0.8 M139.7,225.3l-1.3,1.1
		c0-0.8,0-1.3,0-1.9s0,0,0,0L139.7,225.3z"/>
	<path class="st4" d="M170,225.9l-1.4-1.1c0,0,0,0-0.8,0l-1.4,1.1c-0.1-0.6-0.1-1.2,0-1.7l0,0l-0.8-0.8h1.9l0,0c0,0,0-1.1,0-1.9v1.4
		c0,0,0,0.9,0.9,0.8h1.4l-1.3,1.1c0,0,0,0,0,0.9L170,225.9z"/>
	<path class="st4" d="M151.4,206.4l-1.4,1.4l0,0v1.9l-1.4-1.1 M147.7,208.6l-1.3,1.1c-0.1-0.6-0.1-1.2,0-1.7c0,0,0,0,0-0.8l-1.4-0.9
		h1.5l0,0v-1.7c0,0,0,1.3,0,1.7l0,0L147.7,208.6z"/>
	<path class="st4" d="M108.9,212.5c-0.1-0.6-0.1-1.2,0-1.7l0,0l-1.5-1.1h1.4c0.8,0,0.8,0,1.1-1.1c-0.1-0.4-0.1-0.8,0-1.3v1.7l0,0
		h1.9l-1.5,1.3l0,0c0.1,0.6,0.1,1.2,0,1.7l-1.4-0.9c0,0,0,0-0.8,0C108.4,211.5,108.7,212,108.9,212.5z"/>
	<path class="st4" d="M146,235.1c0,0-1.4,0.8-1.5,1.4c-0.1,0.7-0.1,1.4,0,2l0,0l-1.4-1.1c0,0,0,0-0.8,0l-1.4,1.1c0,0,0-1.3,0-1.9
		s0,0,0,0l-1.4-0.9h1.7l0,0v-1.7c0.1,0.5,0.1,1,0,1.5c0,0,0,0,0.8,0L146,235.1z"/>
	<path class="st4" d="M120.7,219.7h1.7l0,0v-1.9c0.1,0.6,0.1,1.3,0,1.9l0,0h1.9l-1.4,1.3l0,0c-0.1,0.6-0.1,1.3,0,1.9l-1.4-1.1
		c0,0,0,0-0.8,0l1.3,1.7v-1.9l0,0L120.7,219.7z"/>
	<path class="st4" d="M163.4,220.6l-1.4-0.9c0,0,0,0-0.8,0l-1.4,1.1v-1.5c0,0,0-0.8,0-0.9l-1.4-0.9h1.9l0,0c-0.1-0.6-0.1-1.2,0-1.7
		v1.5c0,0,0,0,0.8,0h1.7l-1.3,0.9c0,0,0,0,0,1.1L163.4,220.6z"/>
	<path class="st4" d="M132,202l-1.3,1.1c0,0,0,0,0,0.8v1.7l-1.5-1.1l0,0l-1.3,1.1v-1.9l0,0l-1.4-0.9h1.7l0,0c0,0,0-1.1,0-1.9
		c0-0.8,0,1.3,0,1.9s0,0,0,0h1.7L132,202z"/>
	<path class="st4" d="M170,199.8l-1.1,0.9c0,0,0,0,0,0.9c0.1,0.5,0.1,1,0,1.5l-1.4-0.9c0,0,0,0-0.8,0l-1.4,1.3
		c-0.1-0.6-0.1-1.3,0-1.9 M165.3,200.9l-1.3-0.9h1.5l0,0v-1.7c0.1,0.6,0.1,1.2,0,1.7l0,0h1.5L165.3,200.9z"/>
	<path class="st4" d="M109.2,223.4c0-0.8,0-1.3,0-1.9c0-0.6,0,0,0,0l-1.4-0.9h1.7l0,0c0,0,0-1.1,0-1.9c0-0.8,0,1.3,0,1.7s0,0,0,0
		h1.5c0,0,0,0-0.8,0.9c-0.8,0.9,0,0,0,1.5v1.3l-1.5-1.1l0,0L109.2,223.4z"/>
	<path class="st4" d="M147.2,221.6v-1.7c0,0,0,0,0-0.8c-0.6-0.2-1-0.5-1.4-0.9h1.5l0,0c0.1-0.6,0.1-1.2,0-1.7v1.9l0,0h1.9l-1.5,1.3
		l0,0c0,0,0,1.1,0,1.9l2.4-1.1l0,0L147.2,221.6z"/>
	<path class="st4" d="M165.7,233.9h1.4l0,0v-1.5c0,0,0,1.1,0,1.7s0,0,0,0h1.5c-0.2,0.4-0.6,0.8-1.1,0.9c0,0,0,0,0,1.1
		c0,0.5,0,1,0,1.5l-1.3-0.8c0,0-0.8,0-1.3,0l-1.1,0.9c-0.1-0.5-0.1-1,0-1.5 M163.9,235.3l1.7-1.3L163.9,235.3z"/>
	<path class="st4" d="M158.6,234.4l-1.3,1.1c0,0,0,0,0,0.8c-0.1,0.6-0.1,1.2,0,1.7l-1.4-0.9c0,0,0,0-0.9,0l-1.3,1.1v-1.9l0,0
		c-0.5-0.2-1-0.6-1.4-0.9h1.7l0,0c-0.1-0.6-0.1-1.2,0-1.7c0.1,0.5,0.1,1,0,1.5L158.6,234.4z"/>
	<path class="st4" d="M133.5,235.8l-1.4,1.3c0,0,0,0,0,0.8c0.1,0.6,0.1,1.2,0,1.7l-0.9-0.5c0,0,0,0-0.9,0l-1.4,1.1v-1.7
		c0,0,0,0,0-0.8l-1.5-0.9h1.7l0,0c0.1-0.6,0.1-1.2,0-1.7c0.1,0.6,0.1,1.2,0,1.7c0,0,0,0,0.8,0L133.5,235.8z"/>
	<path class="st4" d="M117.7,234.5c0.1,0.6,0.1,1.3,0,1.9l0,0h1.7l-1.4,1.3l0,0c0.1,0.6,0.1,1.3,0,1.9l0.8-0.5l0,0
		c-0.4,0.5-0.9,0.9-1.4,1.3c0-0.8,0-1.3,0-1.9s0,0,0,0l-1.5-0.9h1.9l0,0C117.7,237.5,117.5,235.3,117.7,234.5z"/>
	<path class="st4" d="M139.2,201.6h1.7l0,0c-0.1-0.6-0.1-1.2,0-1.7c0.1,0.6,0.1,1.2,0,1.7l0,0h1.7l-1.4,1.3 M141.3,203.6
		c-0.1,0.6-0.1,1.2,0,1.7l-1.5-1.1l0,0l-1.4,1.3v-1.7c0,0,0,0,0-0.8l-1.3-0.8L141.3,203.6z"/>
	<path class="st4" d="M154.6,198.2c0.1,0.6,0.1,1.3,0,1.9l0,0h1.7l-1.3,1.1l0,0c0,0,0,1.1,0,1.7l-1.4-0.9l0,0l-1.4,1.1
		c-0.1-0.5-0.1-1,0-1.5c0,0,0-0.8,0-1.1l-1.1-0.8h1.5l0,0C152.7,199.7,154.4,199.1,154.6,198.2z"/>
	<path class="st4" d="M118.8,206.4l-1.3-0.9 M116.6,205.5l-1.4,1.1c0,0,0-1.3,0-1.7s0,0,0,0l-1.4-0.9h1.7l0,0
		c-0.1-0.6-0.1-1.3,0-1.9v1.7l0,0h1.7l-1.3,1.1c0,0,0,0,0,1.1c0.9,0,1.9,0.2,2.8,0.5L116.6,205.5z"/>
	<path class="st4" d="M133.5,218.9h1.7l0,0V217c0,0,0,0.8,0,1.3c0.1,0.5,0.5,0.9,1,0.8c0.1,0,0.2,0,0.2-0.1c0,0,0,0,1.1,0l-1.3,1.1
		l0,0c0.1,0.6,0.1,1.2,0,1.7l-1.5-1.1l0,0l-1.4,1.3v-1.9l0,0L133.5,218.9z"/>
	<path class="st4" d="M177.1,216.4l-1.3,0.9c0,0,0,0,0,0.8v1.7l-1.4-0.9l0,0l-1.3,1.1c-0.1-0.6-0.1-1.2,0-1.7c0.1-0.2,0.1-0.6,0-0.8
		c-0.6-0.2-1-0.5-1.4-0.9h1.7l0,0c-0.1-0.6-0.1-1.2,0-1.7v1.5c0,0,0,0,0.8,0h1.5C175.7,216.4,177.1,216.4,177.1,216.4z"/>
</g>
</svg>
