<svg width="24" height="24" viewBox="0 0 24 24" fill="none" xmlns="http://www.w3.org/2000/svg">
<path fill-rule="evenodd" clip-rule="evenodd" d="M23 12C23 18.0751 18.0751 23 12 23C5.92487 23 1 18.0751 1 12C1 5.92487 5.92487 1 12 1C18.0751 1 23 5.92487 23 12ZM24 12C24 18.6274 18.6274 24 12 24C5.37258 24 0 18.6274 0 12C0 5.37258 5.37258 0 12 0C18.6274 0 24 5.37258 24 12ZM22 12C22 17.5228 17.5228 22 12 22C6.47715 22 2 17.5228 2 12C2 6.47715 6.47715 2 12 2C17.5228 2 22 6.47715 22 12ZM12.8285 5.12502L12.8285 5.12504L12.8285 5.12505C12.8667 5.21581 12.905 5.30675 12.9092 5.39884C12.9215 5.68921 12.9193 5.98023 12.917 6.26322L12.917 6.2635C12.9162 6.37215 12.9153 6.47963 12.9153 6.58542C13.0601 6.62271 13.2036 6.65537 13.3449 6.68752L13.3449 6.68754C13.6609 6.75946 13.9659 6.82887 14.2496 6.94196C14.6023 7.08248 14.9315 7.27411 15.2594 7.465C15.3424 7.51332 15.4254 7.56159 15.5086 7.60898C15.707 7.72222 15.7604 7.87156 15.616 8.07938C15.4789 8.2769 15.3569 8.483 15.2349 8.68911L15.2349 8.68913C15.1682 8.80181 15.1015 8.91449 15.0323 9.02578C14.8661 9.29271 14.7409 9.3176 14.4651 9.13342C13.7316 8.64249 12.9338 8.28907 12.0033 8.37307C11.6119 8.40853 11.1904 8.52738 10.8633 8.72027C10.175 9.12658 10.1449 9.9504 10.8264 10.3598C11.2389 10.6077 11.6956 10.7949 12.1523 10.982C12.3478 11.0622 12.5434 11.1423 12.7354 11.2272C12.942 11.3185 13.152 11.4048 13.362 11.4911C13.8048 11.6731 14.2475 11.855 14.6588 12.0834C16.3659 13.031 16.266 14.9593 15.3457 16.0824C14.8134 16.7314 14.1011 17.1302 13.2403 17.3181C13.2164 17.3233 13.1924 17.3281 13.1684 17.333L13.1681 17.333C13.1256 17.3416 13.0831 17.3501 13.0412 17.3604C13.0206 17.3655 13.0008 17.3733 12.9733 17.3841L12.9733 17.3841C12.957 17.3905 12.938 17.3979 12.9147 17.4065C12.9147 17.5155 12.9155 17.6255 12.9164 17.7361C12.9186 18.0218 12.9208 18.3118 12.9085 18.6012C12.9047 18.6938 12.8662 18.7849 12.8276 18.8762C12.8102 18.9174 12.7927 18.9586 12.7785 19H11.4093C11.388 18.9586 11.3618 18.9176 11.3356 18.8765L11.3355 18.8765C11.2785 18.7873 11.2216 18.6982 11.215 18.6061C11.1963 18.3244 11.1996 18.0414 11.2029 17.7525V17.7525V17.7524C11.2041 17.6393 11.2054 17.5254 11.2054 17.4102C11.0909 17.3811 10.9768 17.353 10.8633 17.3251L10.8631 17.325C10.6153 17.264 10.3701 17.2037 10.1285 17.1346C9.41208 16.9286 8.78875 16.574 8.21947 16.1334C7.98273 15.9499 7.90746 15.7763 8.14489 15.533C8.30572 15.368 8.44977 15.1892 8.59396 15.0102L8.59397 15.0102L8.59402 15.0101C8.66573 14.9211 8.73747 14.832 8.81133 14.7446C9.05149 14.4609 9.13771 14.4559 9.44014 14.6812C10.2475 15.2816 11.148 15.6892 12.2154 15.6263C12.5732 15.6052 12.9578 15.4844 13.2643 15.3121C13.995 14.9014 14.0327 14.0241 13.3286 13.568C12.9915 13.3495 12.6059 13.1909 12.2221 13.033L12.2221 13.033C12.1174 12.99 12.0129 12.947 11.9095 12.9028C11.6601 12.7964 11.4065 12.6976 11.153 12.5988L11.153 12.5988C10.7381 12.4371 10.3234 12.2756 9.92799 12.0809C8.69501 11.4748 8.01283 10.534 8.21331 9.23173C8.41037 7.95182 9.33956 7.20329 10.641 6.79884C10.7633 6.76076 10.8879 6.72901 11.0184 6.69576C11.0798 6.68012 11.1425 6.66414 11.2068 6.64702C11.2068 6.53278 11.2058 6.419 11.2048 6.30558L11.2048 6.30537V6.30533C11.2023 6.02285 11.1998 5.74257 11.213 5.46293C11.2182 5.35493 11.2561 5.24841 11.2939 5.14215L11.294 5.14212C11.3108 5.09473 11.3277 5.04739 11.3416 5H12.7792C12.7934 5.0417 12.8109 5.08335 12.8285 5.12502Z" fill="#818181"/>
</svg>
