<?xml version="1.0" encoding="utf-8"?>
<!-- Generator: Adobe Illustrator 26.3.1, SVG Export Plug-In . SVG Version: 6.00 Build 0)  -->
<svg version="1.1" id="Layer_1" xmlns="http://www.w3.org/2000/svg" xmlns:xlink="http://www.w3.org/1999/xlink" x="0px" y="0px"
	 viewBox="0 0 2500 2500" style="enable-background:new 0 0 2500 2500;" xml:space="preserve">
<style type="text/css">
	.st0{fill:#4AC0BF;}
	.st1{fill:#49C1BF;}
	.st2{fill:#80D4D2;}
	.st3{fill:#BFE9E7;}
	.st4{fill:#FFFFFF;}
</style>
<circle class="st0" cx="1250" cy="1250" r="1250"/>
<g transform="translate(190.693 -109)">
	<path id="path0_fill" class="st1" d="M1645.7,1214.9l-239.1,106.6l-634.2,322.8l634.2,304.9v-504l239.1-107.7V2082l-239.1,106.6
		l-933.8-446.9v-237.5l646.4-317.1L472.9,876.5v-241l242.9-106.6l930,447.7V1214.9L1645.7,1214.9z"/>
</g>
<g transform="translate(190.693 -109)">
	<path id="path1_fill" class="st2" d="M472.9,635.5l933.8,447.7l239.1-106.6l-930-447.7L472.9,635.5z"/>
</g>
<g transform="translate(208.695 -100.365)">
	<path id="path2_fill" class="st3" d="M1388.6,1073.5l239.1-106.6v238.3l-239.1,106.6V1073.5L1388.6,1073.5z"/>
</g>
<g transform="translate(190.693 -106.944)">
	<path id="path3_fill" class="st4" d="M472.9,633.7v241l646.4,310.6l-646.4,317.1v237.5l933.8,446.9v-239.1l-634.2-305.3
		l634.2-322.8v-238.3L472.9,633.7z"/>
</g>
<g transform="translate(208.695 -93.411)">
	<path id="path4_fill" class="st3" d="M1388.6,2171.5l239.1-106.6v-744.6L1388.6,1428V2171.5L1388.6,2171.5z"/>
</g>
</svg>
