<svg width="328" height="30" viewBox="0 0 328 30" fill="none" xmlns="http://www.w3.org/2000/svg">
<path fill-rule="evenodd" clip-rule="evenodd" d="M5.17626 0.0296511V15.3127H24.1446V8.93773H11.7461V6.27335H24.17V0.0296511H5.17626ZM22.4121 13.5803H7.01463V1.73248H22.4502V4.51122H10.0136V10.666H22.4121V13.5803ZM0 22.7933V29.1472H12.5425V18.0618H1.63082V0.0296511H0.0338871V19.8494H10.7846V22.7933H0ZM1.74095 24.547H10.81V27.3257H1.74095V24.547ZM26.9191 18.1338H16.0625C16.0625 21.8826 16.0625 25.4831 16.0964 29.1472H28.6219V22.7933H17.8755V19.8494H28.6134V0H26.9191V18.1338ZM26.864 24.5766V27.3681L17.7907 27.3511V24.5766H26.864ZM194.011 0H197.08L206.952 25.6297L216.904 0H219.937L208.253 29.2104H205.399L194.011 0ZM181.31 15.1571C180.466 14.4357 179.508 13.8595 178.475 13.452C177.24 12.9347 175.972 12.5029 174.679 12.1598C173.458 11.8367 172.471 11.5226 171.663 11.2624C171.005 11.081 170.37 10.825 169.77 10.4996C169.392 10.2918 169.08 9.98053 168.872 9.60218C168.698 9.22189 168.606 8.809 168.603 8.39069V8.30095C168.594 7.95116 168.672 7.60455 168.828 7.29159C168.985 6.97864 169.215 6.70892 169.501 6.50615C170.31 5.96735 171.277 5.71466 172.247 5.78823C173.498 5.81632 174.733 6.07491 175.89 6.55102C177.202 7.09491 178.453 7.77466 179.623 8.57914L182.854 3.90369C181.408 2.75054 179.783 1.84119 178.044 1.21149C176.206 0.586476 174.278 0.268135 172.336 0.269219C170.979 0.239357 169.626 0.436508 168.334 0.852529C167.201 1.26261 166.15 1.87027 165.229 2.64733C164.344 3.41716 163.64 4.37293 163.166 5.44641C162.693 6.51988 162.463 7.68457 162.492 8.85733V8.94707C162.446 10.1527 162.676 11.3528 163.165 12.4559C163.611 13.3647 164.255 14.162 165.05 14.7891C165.938 15.499 166.943 16.0486 168.02 16.4134C169.288 16.8699 170.579 17.2594 171.888 17.5801C173.054 17.8942 173.997 18.1634 174.768 18.4775C175.362 18.7118 175.933 19.0002 176.473 19.339C176.864 19.5301 177.18 19.8458 177.371 20.2364C177.509 20.5824 177.585 20.9499 177.595 21.3222V21.412C177.6 21.8057 177.503 22.1941 177.315 22.5399C177.126 22.8856 176.852 23.177 176.518 23.3862C175.604 23.9125 174.556 24.1619 173.503 24.1042C171.961 24.126 170.431 23.8202 169.016 23.2068C167.606 22.5222 166.278 21.6792 165.059 20.694L161.37 25.1003C163.025 26.5893 164.951 27.747 167.042 28.5104C169.067 29.2698 171.214 29.653 173.377 29.6411C174.793 29.6509 176.202 29.4513 177.559 29.0488C178.734 28.6821 179.832 28.1043 180.799 27.3438C181.708 26.607 182.431 25.6662 182.908 24.5977C183.408 23.4193 183.67 22.1537 183.68 20.8735V20.7838C183.709 19.6899 183.51 18.6019 183.096 17.589C182.698 16.6506 182.087 15.818 181.31 15.1571ZM124.119 18.307H130.401V22.3542C128.678 23.5154 126.636 24.1113 124.559 24.0593C123.371 24.0664 122.194 23.8376 121.095 23.3862C120.079 22.9474 119.163 22.3062 118.403 21.5017C117.622 20.6854 117.011 19.7213 116.608 18.6659C116.18 17.5181 115.967 16.3013 115.98 15.0763V14.9866C115.985 13.8187 116.198 12.661 116.608 11.5675C117.02 10.5325 117.63 9.58767 118.403 8.78554C119.153 8.00316 120.037 7.36181 121.014 6.89203C121.994 6.4107 123.072 6.16486 124.164 6.17411C124.901 6.14455 125.64 6.20482 126.363 6.35359C127.017 6.43839 127.655 6.61985 128.256 6.89203C128.833 7.14657 129.388 7.44665 129.916 7.78943C130.489 8.14818 131.03 8.55657 131.532 9.00989L135.444 4.28957C134.748 3.66664 133.997 3.10797 133.201 2.62041C132.374 2.12435 131.499 1.71248 130.589 1.39097C129.655 1.04674 128.691 0.79135 127.709 0.628179C126.566 0.449494 125.411 0.359486 124.254 0.35896C122.217 0.364245 120.2 0.760277 118.313 1.52558C115.66 2.63102 113.396 4.50183 111.81 6.89932C110.225 9.29681 109.389 12.1123 109.411 14.9866V15.0763C109.385 17.0636 109.751 19.0365 110.488 20.8825C111.209 22.5908 112.247 24.1469 113.548 25.4682C114.905 26.7753 116.51 27.7975 118.268 28.4745C120.189 29.2224 122.237 29.5912 124.299 29.5603C126.652 29.6235 128.992 29.1988 131.173 28.313C133.024 27.4987 134.777 26.4749 136.396 25.2618V12.9136H124.119V18.307ZM54.104 0.637154L41.9622 29.1475H48.244L50.8375 22.8029H62.8267L65.4382 29.1475H71.9982L59.8563 0.637154H54.104ZM53.1169 17.2749L56.8949 8.10352L60.6281 17.2749H53.1169ZM146.24 0.861504H152.441V29.1475H146.24V0.861504ZM86.0784 6.39846H79.9581V0.816634H101.451V6.39846H90.7H86.0784ZM86.0784 12.1059H79.9581V17.6339H86.0784H95.0703H101.451V12.1059H95.6536H86.0784ZM79.9581 23.5747H86.0784H90.2064H101.451V29.1475H79.9581V23.5747ZM236.09 0H233.147L219.766 29.2104H222.728L226.219 21.4658H242.471L245.782 29.2104H248.986L236.09 0ZM227.305 18.989L234.484 2.97039L241.376 18.989H227.305ZM277.335 18.0377C277.339 19.5509 277.152 21.0585 276.778 22.5247C276.427 23.9095 275.784 25.2036 274.894 26.3207C273.967 27.4784 272.78 28.4009 271.43 29.0129C268.047 30.329 264.295 30.329 260.912 29.0129C259.562 28.4009 258.375 27.4784 257.448 26.3207C256.558 25.2036 255.915 23.9095 255.564 22.5247C255.182 21.0597 254.992 19.5515 254.998 18.0377V0H257.861V17.3378C257.867 18.4572 257.969 19.5742 258.166 20.6761C258.356 21.8401 258.757 22.9594 259.351 23.9785C259.961 25.0184 260.826 25.8861 261.863 26.5002C263.206 27.1513 264.679 27.4896 266.171 27.4896C267.663 27.4896 269.136 27.1513 270.478 26.5002C271.514 25.8839 272.379 25.0167 272.991 23.9785C273.58 22.9573 273.981 21.8388 274.176 20.6761C274.373 19.5742 274.475 18.4572 274.481 17.3378V0H277.335V18.0377ZM290.203 0H287.341V29.2104H304.481V26.7425H290.203V0ZM313.957 2.47682H303.494V0H327.293V2.47682H316.811V29.2104H313.957V2.47682Z" fill="#005E85"/>
</svg>
