<svg xmlns="http://www.w3.org/2000/svg" viewBox="0 0 940 68.81"><defs><style>.cls-1{fill:#015776;}</style></defs><g id="Layer_2" data-name="Layer 2"><g id="圖層_1" data-name="圖層 1"><path class="cls-1" d="M511.54,60.35a32.6,32.6,0,0,1-5.81,3.54A31.64,31.64,0,0,1,499,66.22a34.32,34.32,0,0,1-7.89.82,32.45,32.45,0,0,1-12.88-2.58A31.16,31.16,0,0,1,468,57.39a31.73,31.73,0,0,1-6.69-10.61A36.06,36.06,0,0,1,459,33.71v-.19a34.56,34.56,0,0,1,9.22-23.61,31,31,0,0,1,10.23-7.2A31.56,31.56,0,0,1,491.34.06a38,38,0,0,1,7.89.76A29,29,0,0,1,505.73,3a35.3,35.3,0,0,1,5.68,3.28,44.68,44.68,0,0,1,5.12,4.23L513.12,14a47.91,47.91,0,0,0-4.42-3.78,27.89,27.89,0,0,0-5-3,30.3,30.3,0,0,0-5.74-2,27.91,27.91,0,0,0-6.69-.76,26.92,26.92,0,0,0-10.86,2.21,24.83,24.83,0,0,0-8.65,6.19A28.86,28.86,0,0,0,466,22a31,31,0,0,0-2.08,11.37v.19A29.69,29.69,0,0,0,466.09,45a29.05,29.05,0,0,0,5.81,9.28,26.58,26.58,0,0,0,8.64,6.19,26.05,26.05,0,0,0,10.86,2.27,27.5,27.5,0,0,0,12.25-2.59,38.4,38.4,0,0,0,10.1-7.51L517,55.81C515.14,57.45,513.37,59,511.54,60.35Z"/><path class="cls-1" d="M585,50.76a25.13,25.13,0,0,1-5.49,9,23,23,0,0,1-8.4,5.49A29.2,29.2,0,0,1,560.28,67a30.24,30.24,0,0,1-10.67-1.83,23.29,23.29,0,0,1-8.46-5.36,23.58,23.58,0,0,1-5.49-8.78,33.45,33.45,0,0,1-2-12.06V1.14h4.8V38.57c0,7.7,2,13.64,5.81,17.8s9.21,6.25,16.16,6.25a26.24,26.24,0,0,0,8.9-1.45,18.49,18.49,0,0,0,6.82-4.42,19.46,19.46,0,0,0,4.35-7.38,31.85,31.85,0,0,0,1.52-10.29V1.2h4.8V38.51A35.07,35.07,0,0,1,585,50.76Z"/><path class="cls-1" d="M651.63,56.37A17.48,17.48,0,0,1,647.21,62a20.91,20.91,0,0,1-6.76,3.6,26.83,26.83,0,0,1-8.65,1.33,36.81,36.81,0,0,1-14-2.59,41.56,41.56,0,0,1-12.06-7.77L608.89,53a44.52,44.52,0,0,0,5.3,4.29,28.86,28.86,0,0,0,5.43,3A30.1,30.1,0,0,0,625.43,62a36.38,36.38,0,0,0,6.69.63,22.87,22.87,0,0,0,6.69-.94A14.44,14.44,0,0,0,644,59a13,13,0,0,0,3.34-4.1,10.9,10.9,0,0,0,1.2-5.11v-.19a13.15,13.15,0,0,0-.75-4.61,8.77,8.77,0,0,0-2.85-3.73,22.16,22.16,0,0,0-5.61-3,61.48,61.48,0,0,0-9.09-2.46,64.71,64.71,0,0,1-10-2.84,24.71,24.71,0,0,1-6.82-3.79,13.36,13.36,0,0,1-3.85-5.05,16.44,16.44,0,0,1-1.2-6.56V17.3A14.16,14.16,0,0,1,610,10.61a17.78,17.78,0,0,1,4.36-5.43,19.9,19.9,0,0,1,6.56-3.6A25,25,0,0,1,629.22.25a33.68,33.68,0,0,1,12.18,2,38,38,0,0,1,10,5.93l-3,3.79a30.91,30.91,0,0,0-9.28-5.68,28.82,28.82,0,0,0-10-1.64,20.43,20.43,0,0,0-6.5.95,14.94,14.94,0,0,0-5,2.65,11.88,11.88,0,0,0-3.22,3.91,10.06,10.06,0,0,0-1.14,4.74v.19a13.82,13.82,0,0,0,.76,4.67,8.81,8.81,0,0,0,2.84,3.78,21.46,21.46,0,0,0,5.81,3.1,66,66,0,0,0,9.47,2.59c7.51,1.51,12.94,3.72,16.29,6.5a14,14,0,0,1,5,11.36v.19A18.86,18.86,0,0,1,651.63,56.37Z"/><path class="cls-1" d="M695.12,5.49V66h-4.79V5.49H667.72V1.14h50V5.49Z"/><path class="cls-1" d="M791.84,46.27a33.11,33.11,0,0,1-6.63,10.67,31.47,31.47,0,0,1-10.35,7.39A32.15,32.15,0,0,1,761.47,67,31.66,31.66,0,0,1,731.3,46.4,35.79,35.79,0,0,1,729,33.71v-.19a34.82,34.82,0,0,1,2.34-12.75,32.91,32.91,0,0,1,6.62-10.67,31.61,31.61,0,0,1,10.29-7.39A32,32,0,0,1,761.66,0,31.63,31.63,0,0,1,775,2.71,31.2,31.2,0,0,1,785.27,10a31.65,31.65,0,0,1,6.57,10.6,36,36,0,0,1,2.33,12.69c.07.07.07.13,0,.19A33.21,33.21,0,0,1,791.84,46.27Zm-2.65-12.68a31,31,0,0,0-2.09-11.37,29.16,29.16,0,0,0-5.74-9.28,26.59,26.59,0,0,0-8.78-6.25,27,27,0,0,0-11.11-2.33,26.35,26.35,0,0,0-11.05,2.27A27,27,0,0,0,736,22a30.43,30.43,0,0,0-2,11.3v.19a31,31,0,0,0,2.08,11.37,29.3,29.3,0,0,0,5.75,9.28,26.65,26.65,0,0,0,8.77,6.25,27,27,0,0,0,11.11,2.33,26.44,26.44,0,0,0,11-2.27,27.08,27.08,0,0,0,14.4-15.41,30.39,30.39,0,0,0,2-11.3Z"/><path class="cls-1" d="M868.79,46.34a30.09,30.09,0,0,1-7.07,10.29,34,34,0,0,1-10.92,6.88A38.37,38.37,0,0,1,836.85,66H815.26V1.2h21.59A38.36,38.36,0,0,1,850.8,3.66a32.72,32.72,0,0,1,10.92,6.82,30.23,30.23,0,0,1,7.07,10.23,32.59,32.59,0,0,1,2.53,12.75v.19A34,34,0,0,1,868.79,46.34Zm-2.52-12.75a28.38,28.38,0,0,0-2.09-10.86,26.4,26.4,0,0,0-5.87-8.9A28,28,0,0,0,849,7.76a31.67,31.67,0,0,0-12.24-2.2H820V61.68h16.8A33.05,33.05,0,0,0,849,59.47a26.73,26.73,0,0,0,9.28-5.94,26.21,26.21,0,0,0,5.87-8.83,28.3,28.3,0,0,0,2.09-10.93Z"/><path class="cls-1" d="M912.23,40.21V66h-4.8V40.34L879.65,1.14h6L909.89,36,934.26,1.14H940Z"/><path class="cls-1" d="M151.64,67.61l-6.06-14.9h-28.1l-6.06,14.9H96.53L125,.69h13.51L167,67.61ZM131.5,18.24l-8.84,21.53h17.68Z"/><path class="cls-1" d="M306.05,65.72a39.72,39.72,0,0,1-16.16,3.09,38.05,38.05,0,0,1-14.2-2.59,32.08,32.08,0,0,1-11-7.13,32.59,32.59,0,0,1-7.19-10.8,35.63,35.63,0,0,1-2.59-13.69v-.19a34.07,34.07,0,0,1,9.85-24.25,33.08,33.08,0,0,1,11-7.38A34.82,34.82,0,0,1,289.7.06a46.68,46.68,0,0,1,8.15.63,43.41,43.41,0,0,1,6.81,1.77,32.24,32.24,0,0,1,5.88,2.84,45.24,45.24,0,0,1,5.3,3.92l-9.22,11.11a35,35,0,0,0-3.79-2.84,25.89,25.89,0,0,0-3.91-2.09,24.18,24.18,0,0,0-4.42-1.32,26.53,26.53,0,0,0-5.24-.51,17.66,17.66,0,0,0-7.45,1.64,19.54,19.54,0,0,0-6.06,4.49,20.57,20.57,0,0,0-4.1,6.56,21.3,21.3,0,0,0-1.45,8v.19a23.89,23.89,0,0,0,1.45,8.4,21,21,0,0,0,4.16,6.69A18.76,18.76,0,0,0,282.19,54a20,20,0,0,0,8.14,1.57c5.43,0,10-1.32,13.77-4V42H289.39V29.36h28.85V58.21A47.72,47.72,0,0,1,306.05,65.72Z"/><path class="cls-1" d="M341.53,67.61V1.14h14.65V67.61Z"/><path class="cls-1" d="M427.58,56.75a17.31,17.31,0,0,1-5,6.44,21.38,21.38,0,0,1-7.64,4,32.17,32.17,0,0,1-9.85,1.39A44.66,44.66,0,0,1,390.21,66a40.89,40.89,0,0,1-13.33-8l8.65-10.35a44.08,44.08,0,0,0,9.35,5.87,25.17,25.17,0,0,0,10.48,2.21A13.2,13.2,0,0,0,412.43,54,5.23,5.23,0,0,0,415,49.43v-.19a6.47,6.47,0,0,0-.5-2.52,5.12,5.12,0,0,0-2-2,20.63,20.63,0,0,0-4.11-1.9c-1.76-.63-4-1.32-6.81-2A83.65,83.65,0,0,1,392.35,38a26.74,26.74,0,0,1-6.94-3.72A15.15,15.15,0,0,1,381,28.72a19,19,0,0,1-1.58-8.27v-.19a19.19,19.19,0,0,1,1.71-8.2,18.66,18.66,0,0,1,4.73-6.32,21.38,21.38,0,0,1,7.32-4.1A29.62,29.62,0,0,1,402.58.19,40.15,40.15,0,0,1,416,2.4a38.37,38.37,0,0,1,11.23,6.25l-7.57,11A49.61,49.61,0,0,0,411,14.84a21.78,21.78,0,0,0-8.53-1.77A10.8,10.8,0,0,0,396,14.71a5,5,0,0,0-2.14,4.1V19a5.5,5.5,0,0,0,.63,2.78,5.58,5.58,0,0,0,2.21,2.15,20.25,20.25,0,0,0,4.42,1.83c1.89.57,4.23,1.26,7.07,2a76.63,76.63,0,0,1,9,3,27.47,27.47,0,0,1,6.69,4,15.56,15.56,0,0,1,4.1,5.43,18.08,18.08,0,0,1,1.39,7.51v.19A21.42,21.42,0,0,1,427.58,56.75Z"/><polygon class="cls-1" points="210.98 14.2 236.23 14.2 236.23 1.2 185.73 1.2 185.73 14.2 200.19 14.2 210.98 14.2"/><polygon class="cls-1" points="185.73 27.65 185.73 40.66 200.19 40.66 221.27 40.66 236.23 40.66 236.23 27.65 222.6 27.65 200.19 27.65 185.73 27.65"/><polygon class="cls-1" points="185.73 54.61 185.73 67.61 236.23 67.61 236.23 54.61 209.91 54.61 200.19 54.61 185.73 54.61"/><path class="cls-1" d="M11.93,35.86V.76H55.55V15.09H27v6.12H55.49V35.86Zm4.23-4H51.51V25.19H23V11.05H51.58V4.67H16.16ZM0,67.61V53H24.81V46.27H.13V.76H3.79V42.17H28.85V67.61ZM24.87,57.07H4v6.38H24.87ZM36.93,42.3H61.87V.69h3.91V46.27H41.1V53H65.78V67.61H37C36.93,59.22,36.93,51,36.93,42.3ZM61.74,63.51V57.13H40.91v6.38Z"/></g></g></svg>