<svg width="162" height="40" viewBox="0 0 162 40" fill="none" xmlns="http://www.w3.org/2000/svg">
<g clip-path="url(#clip0_3621_49355)">
<path d="M51.0866 30.6126C51.0057 30.9826 50.9248 31.3525 50.9248 31.63C50.9248 32.5664 51.5837 33.0635 53.1791 33.3525V33.8843H46.6011V33.3525C48.1155 33.0635 48.971 32.2543 49.5491 30.6126L57.4797 6.36987H61.5722L69.3872 30.6126C69.8727 32.2543 70.6126 33.1098 71.5953 33.3525V33.8843H63.0057V33.3525C63.9421 33.1098 64.393 32.6126 64.3583 31.8381C64.3583 31.5144 64.2311 31.0982 64.1155 30.6126L62.3121 25.0866H52.9016L51.0982 30.6126H51.0866ZM61.8034 23.6184L57.63 10.7745L53.4219 23.6184H61.8034Z" fill="black"/>
<path d="M73.1211 8.19649C75.6529 7.37568 76.0228 7.21383 78.15 5.90747H78.9246V31.0173C78.9246 32.4508 79.1327 32.9017 80.0691 33.3526V33.8843H73.1211V33.3526C74.0228 32.867 74.2309 32.4508 74.2309 31.0173V10.8208C74.2309 9.54909 74.0228 9.19071 73.1211 8.98262V8.20805V8.19649Z" fill="black"/>
<path d="M81.9072 8.19649C84.439 7.37568 84.809 7.21383 86.9361 5.90747H87.7107V31.0173C87.7107 32.4508 87.9188 32.9017 88.8552 33.3526V33.8843H81.9072V33.3526C82.809 32.867 83.0171 32.4508 83.0171 31.0173V10.8208C83.0171 9.54909 82.809 9.19071 81.9072 8.98262V8.20805V8.19649Z" fill="black"/>
<path d="M102.277 30.7282C98.9246 33.3062 96.9246 34.2889 94.9939 34.2889C92.913 34.2889 91.8032 32.9825 91.8032 30.5663V19.4449C91.8032 18.2195 91.5604 17.8033 90.6934 17.6068V16.8322C93.2252 16.0577 93.5951 15.8958 95.7223 14.5432H96.4968V29.7918C96.4968 30.9825 97.0749 31.7571 97.965 31.7571C98.9824 31.7571 100.3 31.0634 102.254 29.549V19.4449C102.254 18.2195 102.011 17.8033 101.144 17.6068V16.8322C103.676 16.0577 104.046 15.8958 106.173 14.5432H106.948V31.0634C106.948 32.4507 107.156 32.9016 108.046 33.3525V33.8843H102.242V30.7397H102.277V30.7282Z" fill="black"/>
<path d="M115.804 33.8844L110.567 18.0231C110.116 16.6358 109.665 16.1387 108.602 15.815V15.2832H116.208V15.815C115.388 16.0578 115.064 16.393 115.064 16.9133C115.064 17.2023 115.145 17.6069 115.272 18.0231L119.445 30.6589L123.33 18.0231C123.457 17.6994 123.492 17.3641 123.492 17.1214C123.492 16.4277 123.006 16.104 121.573 15.815V15.2832H127.099V15.815C125.63 16.1387 125.099 16.6358 124.602 18.1503L119.654 33.8959H115.804V33.8844Z" fill="black"/>
<path d="M127.214 16.8323C129.792 16.0577 130.162 15.8958 132.289 14.5432H133.064V31.0635C133.064 32.4508 133.272 32.9016 134.173 33.3525V33.8843H127.26V33.3525C128.162 32.9016 128.37 32.4508 128.37 31.0635V19.445C128.37 18.1733 128.127 17.7687 127.225 17.6068V16.8323H127.214ZM133.145 8.45075C133.145 9.75711 132.035 10.6126 130.324 10.6126C128.613 10.6126 127.538 9.71087 127.538 8.35827C127.538 7.13284 128.682 6.27734 130.358 6.27734C132.035 6.27734 133.145 7.13284 133.145 8.43919V8.45075Z" fill="black"/>
<path d="M153.71 32.7399C152.404 33.9307 151.583 34.2891 150.231 34.2891C148.346 34.2891 147.248 33.3873 147.005 31.5954C145.699 32.5781 145.537 32.7052 145.005 33.0289C143.78 33.8498 142.312 34.3006 140.959 34.3006C138.138 34.3006 136.173 32.5434 136.173 30.1272C136.173 28.2081 137.445 26.5665 139.976 25.2255C141.618 24.3237 143.653 23.422 147.005 22.081V17.9538C147.005 16.5665 146.184 15.6995 144.843 15.6995C144.184 15.6995 143.456 15.9885 143.121 16.3584C142.982 16.5203 142.739 17.0521 142.381 17.9538C141.722 19.5954 140.947 20.2891 139.803 20.2891C138.658 20.2891 137.838 19.5145 137.838 18.5665C137.838 16.3122 141.028 14.6821 145.317 14.6821C149.606 14.6821 151.653 16.2313 151.653 19.0521V31.4798C151.653 32.3006 151.861 32.6706 152.346 32.6706C152.635 32.6706 152.832 32.5434 153.086 32.185L153.699 32.7631V32.7399H153.71ZM147.017 23.2139C142.023 25.2139 140.716 26.4856 140.716 29.0983C140.716 30.9365 141.699 32.1619 143.086 32.1619C144.103 32.1619 145.086 31.7573 147.017 30.4856V23.2024V23.2139Z" fill="black"/>
<path d="M154.901 8.19649C157.433 7.37568 157.803 7.21383 159.93 5.90747H160.705V31.0173C160.705 32.4508 160.913 32.9017 161.849 33.3526V33.8843H154.901V33.3526C155.803 32.867 156.011 32.4508 156.011 31.0173V10.8208C156.011 9.54909 155.803 9.19071 154.901 8.98262V8.20805V8.19649Z" fill="black"/>
<path d="M21.4915 0L21.0637 0.427746C19.3874 3.10983 16.266 8.3237 15.4568 11.2832C14.3354 15.3873 21.5608 16.7399 23.688 17.9191C26.636 19.5491 28.8094 22.0462 29.7805 24.6127H42.451C42.74 23.6532 42.9713 22.6705 43.1331 21.6647L21.4915 0Z" fill="black"/>
<path d="M15.6069 19.8151C12.0231 18.4741 11.3179 15.977 11.8844 13.688C12.3584 11.7689 14.763 7.75733 16.5549 4.93652L0 21.4568C0.16185 22.5319 0.404624 23.5839 0.716763 24.6013H20.5665C20.7746 22.2082 17.8497 20.6475 15.6069 19.8151Z" fill="black"/>
<path d="M1.91895 27.6531C2.45074 28.7513 3.07501 29.7918 3.76866 30.7745H39.4218C40.023 29.919 40.5663 29.0172 41.0519 28.0808C41.1213 27.9421 41.2022 27.7918 41.2715 27.6531H1.91895Z" fill="black"/>
<path d="M24.8785 33.8267H6.38135C6.62412 34.0694 6.87846 34.3006 7.14435 34.5319C7.8958 35.1908 8.69349 35.8035 9.52586 36.3585C11.3524 37.5723 13.364 38.5087 15.5143 39.133C17.4449 39.6879 19.4796 40.0001 21.5837 40.0001C22.8091 40.0001 23.9998 39.896 25.1675 39.6995C26.0114 39.5608 26.8438 39.3642 27.653 39.133C29.8033 38.5087 31.8264 37.5723 33.6415 36.3585C34.7629 35.607 35.8149 34.7631 36.786 33.8267H24.8785Z" fill="black"/>
</g>
<defs>
<clipPath id="clip0_3621_49355">
<rect width="161.85" height="40" fill="white"/>
</clipPath>
</defs>
</svg>
