<svg width="174" height="40" viewBox="0 0 174 40" fill="none" xmlns="http://www.w3.org/2000/svg">
<path d="M162.411 27.4818C163.31 27.4818 164.178 27.3019 165.003 26.9311C165.829 26.5713 166.549 26.064 167.151 25.4074C167.766 24.7196 168.252 23.9363 168.622 23.0264C168.982 22.1055 169.162 21.0897 169.162 19.9998C169.162 18.91 168.982 17.9046 168.622 17.005C168.284 16.1263 167.786 15.3222 167.151 14.6344C165.945 13.2796 164.22 12.5178 162.411 12.5178C161.49 12.5178 160.612 12.6983 159.786 13.0685C158.982 13.4283 158.272 13.9466 157.659 14.635C157.055 15.291 156.569 16.0853 156.209 17.0056C155.828 17.9578 155.645 18.9736 155.659 20.0004C155.659 21.1012 155.839 22.1066 156.209 23.027C156.569 23.9369 157.055 24.7202 157.659 25.408C158.272 26.0646 158.982 26.5719 159.786 26.9317C160.611 27.3025 161.49 27.4824 162.411 27.4824V27.4818ZM162.411 31.6827C160.908 31.6827 159.469 31.3866 158.103 30.8046C156.78 30.2122 155.574 29.3654 154.558 28.3287C153.553 27.2279 152.738 25.9685 152.156 24.6033C151.552 23.1427 151.256 21.5767 151.277 19.9998C151.277 18.3702 151.563 16.8465 152.156 15.4391C152.717 14.0629 153.542 12.7937 154.558 11.7137C155.564 10.6551 156.77 9.80879 158.103 9.22684C159.468 8.62349 160.907 8.31689 162.411 8.31689C163.914 8.31689 165.343 8.62349 166.686 9.23725C168.041 9.8192 169.226 10.6447 170.221 11.7143C171.258 12.7827 172.083 14.0531 172.634 15.4397C173.247 16.8471 173.544 18.3708 173.544 20.0004C173.544 21.63 173.247 23.1965 172.634 24.6039C172.073 25.9795 171.248 27.2493 170.221 28.3293C169.215 29.3769 168.02 30.2232 166.686 30.8052C165.332 31.3981 163.881 31.6943 162.411 31.6833V31.6827ZM121.518 27.3019C122.418 27.3019 123.286 27.1081 124.111 26.72C124.968 26.3284 125.709 25.8095 126.344 25.1535C127 24.4865 127.508 23.7217 127.876 22.8459C128.259 21.947 128.46 20.9942 128.46 19.9992C128.46 19.0043 128.27 18.0735 127.876 17.1844C127.529 16.3161 127 15.523 126.344 14.8456C125.709 14.1896 124.947 13.6603 124.111 13.2791C123.307 12.8979 122.418 12.6971 121.518 12.6971H118.597V27.3013H121.518V27.3019ZM114.216 8.49564H121.518C123.031 8.49564 124.47 8.81265 125.826 9.4484C127.191 10.0622 128.398 10.8876 129.445 11.9353C130.493 12.9829 131.339 14.2208 131.932 15.586C132.535 16.9726 132.842 18.4437 132.842 19.9992C132.842 21.5548 132.535 23.0258 131.932 24.4124C131.339 25.7776 130.493 27.0162 129.445 28.0638C128.397 29.1114 127.169 29.9687 125.826 30.5929C124.471 31.1962 123.032 31.5028 121.518 31.5028H114.216V8.49622V8.49564ZM88.8696 8.49564H93.2406V31.5028H88.8696V8.49622V8.49564ZM54.5596 8.49564H58.941V27.3019H69.7145V31.5034H54.5596V8.49622V8.49564Z" fill="#080E14"/>
<path fill-rule="evenodd" clip-rule="evenodd" d="M7.14295 14.761L14.0083 4.01058L20.8829 14.761L14.0083 18.7716L7.14295 14.761ZM14.0083 0L23.9141 15.5003L14.0083 21.2608L4.1123 15.5003L14.0083 0Z" fill="#00A3FF"/>
<path d="M13.9991 24.6663L2.50879 17.9785L2.19641 18.4679C-1.33461 24.0097 -0.543255 31.2598 4.10249 35.9061C9.561 41.3646 18.4262 41.3646 23.8951 35.9061C28.5408 31.2598 29.3322 24.0097 25.8012 18.4679L25.4784 17.9785L13.9991 24.6663Z" fill="#00A3FF"/>
</svg>
