<svg width="200" height="200" viewBox="0 0 200 200" fill="none" xmlns="http://www.w3.org/2000/svg">
<g clip-path="url(#clip0_6029_151887)">
<path d="M127.43 195.88C110.43 195.88 93.4297 195.88 76.4297 195.88C78.2497 186.66 80.0697 177.43 81.8897 168.21H121.96C123.78 177.43 125.6 186.66 127.42 195.88H127.43Z" fill="#F0F0F0"/>
<path d="M72.4996 190.27H129.94C133.03 190.27 135.54 192.78 135.54 195.87H66.8896C66.8896 192.78 69.3996 190.27 72.4896 190.27H72.4996Z" fill="#F0F0F0"/>
<path d="M121.96 168.21H81.8904C81.1404 171.99 80.4004 175.76 79.6504 179.54H124.19C123.44 175.76 122.7 171.99 121.95 168.21H121.96Z" fill="#DCDEDF"/>
<path d="M200 39.9598C200 37.6398 198.12 35.7598 195.8 35.7598H4.2C1.88 35.7598 0 37.6398 0 39.9598V154.15H200V39.9598Z" fill="#395273"/>
<path d="M200 39.9598V154.15H0V39.9598C0 37.6398 1.88 35.7598 4.2 35.7598H195.79C198.11 35.7598 199.99 37.6398 199.99 39.9598H200Z" fill="#C0C0C0"/>
<path d="M189.5 44.8599H10.5104C9.73715 44.8599 9.11035 45.4867 9.11035 46.2599V143.64C9.11035 144.413 9.73715 145.04 10.5104 145.04H189.5C190.274 145.04 190.9 144.413 190.9 143.64V46.2599C190.9 45.4867 190.274 44.8599 189.5 44.8599Z" fill="#FAFCFE"/>
<path d="M0 154.14V169.55C0 171.87 1.88 173.75 4.2 173.75H195.79C198.11 173.75 199.99 171.87 199.99 169.55V154.14H0Z" fill="#F0F0F0"/>
<path d="M171.629 6.45C171.629 5.1 170.529 4 169.179 4H29.7693C28.4193 4 27.3193 5.1 27.3193 6.45V20.34H171.629V6.45Z" fill="#9DD0F0"/>
<path d="M27.3193 20.3398V133.83C27.3193 135.18 28.4193 136.28 29.7693 136.28H169.169C170.519 136.28 171.619 135.18 171.619 133.83V20.3398H27.3193Z" fill="#EBEFF0"/>
<path d="M167.709 13.4776C167.975 12.3488 167.276 11.2178 166.147 10.9513C165.019 10.6849 163.887 11.384 163.621 12.5128C163.355 13.6416 164.054 14.7726 165.183 15.039C166.311 15.3054 167.442 14.6064 167.709 13.4776Z" fill="#EBEFF0"/>
<path d="M158.669 15.0901C159.829 15.0901 160.769 14.1499 160.769 12.9901C160.769 11.8303 159.829 10.8901 158.669 10.8901C157.51 10.8901 156.569 11.8303 156.569 12.9901C156.569 14.1499 157.51 15.0901 158.669 15.0901Z" fill="#EBEFF0"/>
<path d="M153.746 13.3261C153.932 12.1813 153.154 11.1026 152.009 10.9168C150.865 10.731 149.786 11.5084 149.6 12.6532C149.414 13.798 150.192 14.8767 151.337 15.0625C152.481 15.2484 153.56 14.471 153.746 13.3261Z" fill="#EBEFF0"/>
<path d="M128.55 14.3901H40.6299C39.6599 14.3901 38.8799 13.6101 38.8799 12.6401C38.8799 11.6701 39.6599 10.8901 40.6299 10.8901H128.55C129.52 10.8901 130.3 11.6701 130.3 12.6401C130.3 13.6101 129.52 14.3901 128.55 14.3901Z" fill="#EBEFF0"/>
<path d="M29.7696 136.28H35.7196V20.3398H27.3096V133.83C27.3096 135.18 28.4096 136.28 29.7596 136.28H29.7696Z" fill="#F0F0F0"/>
<path d="M169.179 136.28H163.229V20.3398H171.639V133.83C171.639 135.18 170.539 136.28 169.189 136.28H169.179Z" fill="#F0F0F0"/>
<path d="M157.969 27H40.9795V81.99H157.969V27Z" fill="#C0C0C0"/>
<path d="M157.969 27H40.9795V30.85H157.969V27Z" fill="#9DD0F0"/>
<path d="M77.8395 85.8398H40.9795V101.95H77.8395V85.8398Z" fill="#C0C0C0"/>
<path d="M117.91 85.8398H81.0498V101.95H117.91V85.8398Z" fill="#C0C0C0"/>
<path d="M157.969 85.8398H121.109V101.95H157.969V85.8398Z" fill="#C0C0C0"/>
<path d="M77.7595 105.46H40.9795V108.26H77.7595V105.46Z" fill="#C0C0C0"/>
<path d="M77.7595 111.06H40.9795V113.86H77.7595V111.06Z" fill="#C0C0C0"/>
<path d="M117.689 105.46H80.9092V108.26H117.689V105.46Z" fill="#C0C0C0"/>
<path d="M117.689 111.06H80.9092V113.86H117.689V111.06Z" fill="#C0C0C0"/>
<path d="M157.969 105.46H121.189V108.26H157.969V105.46Z" fill="#C0C0C0"/>
<path d="M157.969 111.06H121.189V113.86H157.969V111.06Z" fill="#C0C0C0"/>
<path d="M70.1704 67.05C55.5304 81.69 55.5304 105.42 70.1704 120.05C84.8104 134.69 108.54 134.69 123.17 120.05C137.81 105.41 137.81 81.68 123.17 67.05C108.53 52.42 84.8004 52.41 70.1704 67.05ZM116.98 113.86C105.76 125.08 87.5804 125.08 76.3604 113.86C65.1404 102.64 65.1404 84.46 76.3604 73.24C87.5804 62.02 105.76 62.02 116.98 73.24C128.2 84.46 128.2 102.64 116.98 113.86Z" fill="#818181"/>
<path opacity="0.25" d="M96.6702 122.27C112.532 122.27 125.39 109.412 125.39 93.5501C125.39 77.6885 112.532 64.8301 96.6702 64.8301C80.8086 64.8301 67.9502 77.6885 67.9502 93.5501C67.9502 109.412 80.8086 122.27 96.6702 122.27Z" fill="#4BADD8"/>
<path d="M125.153 118.072L120.698 122.527L126.398 128.226L130.852 123.771L125.153 118.072Z" fill="#818181"/>
<path d="M122.681 131.94L147.451 156.71C150.731 159.99 156.061 159.99 159.341 156.71C162.621 153.43 162.621 148.1 159.341 144.82L134.571 120.05L122.681 131.94ZM157.111 154.48C154.921 156.67 151.371 156.67 149.181 154.48C146.991 152.29 146.991 148.74 149.181 146.55C151.371 144.36 154.921 144.36 157.111 146.55C159.301 148.74 159.301 152.29 157.111 154.48Z" fill="#005E85"/>
<g opacity="0.2">
<path d="M96.7903 65.04C96.1803 65.04 95.5803 65.07 94.9903 65.1L68.1303 91.96C68.0903 92.56 68.0703 93.16 68.0703 93.76C68.0703 96.82 68.5503 99.77 69.4403 102.54L105.57 66.41C102.8 65.52 99.8603 65.04 96.7903 65.04Z" fill="#EBEFF0"/>
<path d="M115.09 71.6201L74.6504 112.06C78.2804 116.45 83.1904 119.73 88.8104 121.35L124.38 85.7801C122.76 80.1601 119.47 75.2501 115.09 71.6201Z" fill="#EBEFF0"/>
</g>
</g>
<defs>
<clipPath id="clip0_6029_151887">
<rect width="200" height="191.88" fill="white" transform="translate(0 4)"/>
</clipPath>
</defs>
</svg>
